<?xml version="1.0" encoding="UTF-8" standalone="no"?>
<!DOCTYPE svg PUBLIC "-//W3C//DTD SVG 1.1//EN"
 "http://www.w3.org/Graphics/SVG/1.1/DTD/svg11.dtd">
<!-- Generated by graphviz version 12.1.2 (20240928.0832)
 -->
<!-- Pages: 1 -->
<svg width="433pt" height="372pt"
 viewBox="0.00 0.00 432.62 371.75" xmlns="http://www.w3.org/2000/svg" xmlns:xlink="http://www.w3.org/1999/xlink">
<g id="graph0" class="graph" transform="scale(1 1) rotate(0) translate(4 367.75)">
<polygon fill="white" stroke="none" points="-4,4 -4,-367.75 428.62,-367.75 428.62,4 -4,4"/>
<!-- 4730205943912289865 -->
<g id="node1" class="node">
<title>4730205943912289865</title>
<g id="a_node1"><a xlink:title="A Materialized Layer with 1 Tasks.&#10;">
<polygon fill="none" stroke="black" points="288.75,-363.75 209.75,-363.75 209.75,-327.75 288.75,-327.75 288.75,-363.75"/>
<text text-anchor="middle" x="249.25" y="-337.25" font-family="Helvetica,sans-Serif" font-size="20.00">add&#45;#0</text>
</a>
</g>
</g>
<!-- 1999298058508588639 -->
<g id="node2" class="node">
<title>1999298058508588639</title>
<g id="a_node2"><a xlink:title="A Materialized Layer with 1 Tasks.&#10;">
<polygon fill="none" stroke="black" points="233.75,-291.75 154.75,-291.75 154.75,-255.75 233.75,-255.75 233.75,-291.75"/>
<text text-anchor="middle" x="194.25" y="-265.25" font-family="Helvetica,sans-Serif" font-size="20.00">add&#45;#1</text>
</a>
</g>
</g>
<!-- 1999298058508588639&#45;&gt;4730205943912289865 -->
<g id="edge2" class="edge">
<title>1999298058508588639&#45;&gt;4730205943912289865</title>
<path fill="none" stroke="black" d="M207.85,-292.05C214.17,-300.11 221.83,-309.86 228.84,-318.77"/>
<polygon fill="black" stroke="black" points="225.95,-320.75 234.88,-326.46 231.45,-316.43 225.95,-320.75"/>
</g>
<!-- &#45;4588177576361219077 -->
<g id="node3" class="node">
<title>&#45;4588177576361219077</title>
<g id="a_node3"><a xlink:title="A Materialized Layer with 1 Tasks.&#10;">
<polygon fill="none" stroke="black" points="122.5,-213.12 0,-213.12 0,-177.12 122.5,-177.12 122.5,-213.12"/>
<text text-anchor="middle" x="61.25" y="-186.62" font-family="Helvetica,sans-Serif" font-size="20.00">add_unit&#45;#2</text>
</a>
</g>
</g>
<!-- &#45;4588177576361219077&#45;&gt;1999298058508588639 -->
<g id="edge4" class="edge">
<title>&#45;4588177576361219077&#45;&gt;1999298058508588639</title>
<path fill="none" stroke="black" d="M91.43,-213.51C110.05,-224.24 134.15,-238.13 154.34,-249.76"/>
<polygon fill="black" stroke="black" points="152.47,-252.72 162.88,-254.68 155.96,-246.65 152.47,-252.72"/>
</g>
<!-- &#45;2342671125327619999 -->
<g id="node4" class="node">
<title>&#45;2342671125327619999</title>
<g id="a_node4"><a xlink:title="A Materialized Layer with 10 Tasks.&#10;Array Shape: (10000000,)&#10;Data Type: int64&#10;Chunk Size: (1000000,)&#10;Chunk Type: numpy.ndarray&#10;">
<polygon fill="none" stroke="black" points="369.5,-49.25 169,-49.25 169,0 369.5,0 369.5,-49.25"/>
<text text-anchor="middle" x="269.25" y="-7.25" font-family="Helvetica,sans-Serif" font-size="40.00">arange&#45;#3</text>
</a>
</g>
</g>
<!-- &#45;6465151267298144077 -->
<g id="node5" class="node">
<title>&#45;6465151267298144077</title>
<g id="a_node5"><a xlink:title="A Blockwise Layer with 10 Tasks.&#10;Array Shape: (10000000,)&#10;Data Type: int64&#10;Chunk Size: (1000000,)&#10;Chunk Type: numpy.ndarray&#10;">
<polygon fill="none" stroke="black" points="258.12,-134.5 118.38,-134.5 118.38,-85.25 258.12,-85.25 258.12,-134.5"/>
<text text-anchor="middle" x="188.25" y="-92.5" font-family="Helvetica,sans-Serif" font-size="40.00">sub&#45;#4</text>
</a>
</g>
</g>
<!-- &#45;2342671125327619999&#45;&gt;&#45;6465151267298144077 -->
<g id="edge5" class="edge">
<title>&#45;2342671125327619999&#45;&gt;&#45;6465151267298144077</title>
<path fill="none" stroke="black" d="M245.82,-49.7C237.59,-58.16 228.22,-67.8 219.45,-76.81"/>
<polygon fill="black" stroke="black" points="217.15,-74.16 212.68,-83.76 222.16,-79.04 217.15,-74.16"/>
</g>
<!-- &#45;8016158104160757531 -->
<g id="node7" class="node">
<title>&#45;8016158104160757531</title>
<g id="a_node7"><a xlink:title="A Blockwise Layer with 10 Tasks.&#10;Array Shape: (10000000,)&#10;Data Type: int64&#10;Chunk Size: (1000000,)&#10;Chunk Type: numpy.ndarray&#10;">
<polygon fill="none" stroke="black" points="424.62,-134.5 275.88,-134.5 275.88,-85.25 424.62,-85.25 424.62,-134.5"/>
<text text-anchor="middle" x="350.25" y="-92.5" font-family="Helvetica,sans-Serif" font-size="40.00">pow&#45;#6</text>
</a>
</g>
</g>
<!-- &#45;2342671125327619999&#45;&gt;&#45;8016158104160757531 -->
<g id="edge7" class="edge">
<title>&#45;2342671125327619999&#45;&gt;&#45;8016158104160757531</title>
<path fill="none" stroke="black" d="M292.68,-49.7C300.91,-58.16 310.28,-67.8 319.05,-76.81"/>
<polygon fill="black" stroke="black" points="316.34,-79.04 325.82,-83.76 321.35,-74.16 316.34,-79.04"/>
</g>
<!-- &#45;5992219527240249053 -->
<g id="node6" class="node">
<title>&#45;5992219527240249053</title>
<g id="a_node6"><a xlink:title="A Materialized Layer with 1 Tasks.&#10;">
<polygon fill="none" stroke="black" points="248,-213.12 140.5,-213.12 140.5,-177.12 248,-177.12 248,-213.12"/>
<text text-anchor="middle" x="194.25" y="-186.62" font-family="Helvetica,sans-Serif" font-size="20.00">finalize&#45;#5</text>
</a>
</g>
</g>
<!-- &#45;6465151267298144077&#45;&gt;&#45;5992219527240249053 -->
<g id="edge6" class="edge">
<title>&#45;6465151267298144077&#45;&gt;&#45;5992219527240249053</title>
<path fill="none" stroke="black" d="M189.99,-134.95C190.67,-144.45 191.46,-155.43 192.17,-165.33"/>
<polygon fill="black" stroke="black" points="188.68,-165.48 192.89,-175.2 195.66,-164.97 188.68,-165.48"/>
</g>
<!-- &#45;5992219527240249053&#45;&gt;1999298058508588639 -->
<g id="edge3" class="edge">
<title>&#45;5992219527240249053&#45;&gt;1999298058508588639</title>
<path fill="none" stroke="black" d="M194.25,-213.51C194.25,-222.53 194.25,-233.77 194.25,-244.03"/>
<polygon fill="black" stroke="black" points="190.75,-243.92 194.25,-253.92 197.75,-243.92 190.75,-243.92"/>
</g>
<!-- &#45;1193814350322673887 -->
<g id="node8" class="node">
<title>&#45;1193814350322673887</title>
<g id="a_node8"><a xlink:title="A Blockwise Layer with 10 Tasks.&#10;Array Shape: (10000000,)&#10;Data Type: int64&#10;Chunk Size: (1000000,)&#10;Chunk Type: numpy.ndarray&#10;">
<polygon fill="none" stroke="black" points="414.75,-219.75 275.75,-219.75 275.75,-170.5 414.75,-170.5 414.75,-219.75"/>
<text text-anchor="middle" x="345.25" y="-177.75" font-family="Helvetica,sans-Serif" font-size="40.00">mul&#45;#7</text>
</a>
</g>
</g>
<!-- &#45;8016158104160757531&#45;&gt;&#45;1193814350322673887 -->
<g id="edge8" class="edge">
<title>&#45;8016158104160757531&#45;&gt;&#45;1193814350322673887</title>
<path fill="none" stroke="black" d="M348.8,-134.95C348.36,-142.38 347.86,-150.71 347.38,-158.72"/>
<polygon fill="black" stroke="black" points="343.89,-158.4 346.78,-168.59 350.88,-158.82 343.89,-158.4"/>
</g>
<!-- &#45;6419179714170818426 -->
<g id="node9" class="node">
<title>&#45;6419179714170818426</title>
<g id="a_node9"><a xlink:title="A Materialized Layer with 1 Tasks.&#10;">
<polygon fill="none" stroke="black" points="379,-291.75 271.5,-291.75 271.5,-255.75 379,-255.75 379,-291.75"/>
<text text-anchor="middle" x="325.25" y="-265.25" font-family="Helvetica,sans-Serif" font-size="20.00">finalize&#45;#8</text>
</a>
</g>
</g>
<!-- &#45;1193814350322673887&#45;&gt;&#45;6419179714170818426 -->
<g id="edge9" class="edge">
<title>&#45;1193814350322673887&#45;&gt;&#45;6419179714170818426</title>
<path fill="none" stroke="black" d="M339.03,-219.95C337.03,-227.62 334.79,-236.21 332.71,-244.19"/>
<polygon fill="black" stroke="black" points="329.33,-243.25 330.19,-253.81 336.11,-245.01 329.33,-243.25"/>
</g>
<!-- &#45;6419179714170818426&#45;&gt;4730205943912289865 -->
<g id="edge1" class="edge">
<title>&#45;6419179714170818426&#45;&gt;4730205943912289865</title>
<path fill="none" stroke="black" d="M306.46,-292.05C297.42,-300.38 286.41,-310.53 276.47,-319.68"/>
<polygon fill="black" stroke="black" points="274.18,-317.03 269.2,-326.38 278.92,-322.18 274.18,-317.03"/>
</g>
</g>
</svg>
