<?xml version="1.0" encoding="UTF-8" standalone="no"?>
<!DOCTYPE svg PUBLIC "-//W3C//DTD SVG 1.1//EN"
 "http://www.w3.org/Graphics/SVG/1.1/DTD/svg11.dtd">
<!-- Generated by graphviz version 12.1.2 (20240928.0832)
 -->
<!-- Pages: 1 -->
<svg width="2120pt" height="260pt"
 viewBox="0.00 0.00 2120.25 260.00" xmlns="http://www.w3.org/2000/svg" xmlns:xlink="http://www.w3.org/1999/xlink">
<g id="graph0" class="graph" transform="scale(1 1) rotate(0) translate(4 256)">
<polygon fill="white" stroke="none" points="-4,4 -4,-256 2116.25,-256 2116.25,4 -4,4"/>
<!-- &#45;7583971085621424742 -->
<g id="node1" class="node">
<title>&#45;7583971085621424742</title>
<g id="a_node1"><a xlink:title="A Materialized Layer with 2 Tasks.&#10;">
<polygon fill="none" stroke="black" points="2025.38,-108 1899.88,-108 1899.88,-72 2025.38,-72 2025.38,-108"/>
<text text-anchor="middle" x="1962.62" y="-81.5" font-family="Helvetica,sans-Serif" font-size="20.00">(&#39;sum&#45;#0&#39;, 0)</text>
</a>
</g>
</g>
<!-- 1091075960866584196 -->
<g id="node11" class="node">
<title>1091075960866584196</title>
<g id="a_node11"><a xlink:title="A Materialized Layer with 2 Tasks.&#10;">
<polygon fill="none" stroke="black" points="1682.12,-180 1495.12,-180 1495.12,-144 1682.12,-144 1682.12,-180"/>
<text text-anchor="middle" x="1588.62" y="-153.5" font-family="Helvetica,sans-Serif" font-size="20.00">(&#39;sum&#45;partial&#45;#1&#39;, 0)</text>
</a>
</g>
</g>
<!-- &#45;7583971085621424742&#45;&gt;1091075960866584196 -->
<g id="edge11" class="edge">
<title>&#45;7583971085621424742&#45;&gt;1091075960866584196</title>
<path fill="none" stroke="black" d="M1899.6,-102.8C1843.2,-113.35 1759.42,-129.03 1693.03,-141.46"/>
<polygon fill="black" stroke="black" points="1692.78,-137.95 1683.59,-143.23 1694.07,-144.83 1692.78,-137.95"/>
</g>
<!-- 1571341576131062380 -->
<g id="node2" class="node">
<title>1571341576131062380</title>
<g id="a_node2"><a xlink:title="A Materialized Layer with 2 Tasks.&#10;">
<polygon fill="none" stroke="black" points="1472.38,-108 1346.88,-108 1346.88,-72 1472.38,-72 1472.38,-108"/>
<text text-anchor="middle" x="1409.62" y="-81.5" font-family="Helvetica,sans-Serif" font-size="20.00">(&#39;sum&#45;#0&#39;, 1)</text>
</a>
</g>
</g>
<!-- 1571341576131062380&#45;&gt;1091075960866584196 -->
<g id="edge12" class="edge">
<title>1571341576131062380&#45;&gt;1091075960866584196</title>
<path fill="none" stroke="black" d="M1454.33,-108.48C1478.34,-117.87 1508.15,-129.53 1533.58,-139.47"/>
<polygon fill="black" stroke="black" points="1532.18,-142.68 1542.77,-143.07 1534.73,-136.17 1532.18,-142.68"/>
</g>
<!-- 8078982332233060805 -->
<g id="node3" class="node">
<title>8078982332233060805</title>
<g id="a_node3"><a xlink:title="A Materialized Layer with 2 Tasks.&#10;">
<polygon fill="none" stroke="black" points="1651.38,-108 1525.88,-108 1525.88,-72 1651.38,-72 1651.38,-108"/>
<text text-anchor="middle" x="1588.62" y="-81.5" font-family="Helvetica,sans-Serif" font-size="20.00">(&#39;sum&#45;#0&#39;, 2)</text>
</a>
</g>
</g>
<!-- 8078982332233060805&#45;&gt;1091075960866584196 -->
<g id="edge13" class="edge">
<title>8078982332233060805&#45;&gt;1091075960866584196</title>
<path fill="none" stroke="black" d="M1588.62,-108.3C1588.62,-115.59 1588.62,-124.27 1588.62,-132.46"/>
<polygon fill="black" stroke="black" points="1585.13,-132.38 1588.63,-142.38 1592.13,-132.38 1585.13,-132.38"/>
</g>
<!-- &#45;3860120985374492386 -->
<g id="node4" class="node">
<title>&#45;3860120985374492386</title>
<g id="a_node4"><a xlink:title="A Materialized Layer with 2 Tasks.&#10;">
<polygon fill="none" stroke="black" points="1829.38,-108 1703.88,-108 1703.88,-72 1829.38,-72 1829.38,-108"/>
<text text-anchor="middle" x="1766.62" y="-81.5" font-family="Helvetica,sans-Serif" font-size="20.00">(&#39;sum&#45;#0&#39;, 3)</text>
</a>
</g>
</g>
<!-- &#45;3860120985374492386&#45;&gt;1091075960866584196 -->
<g id="edge14" class="edge">
<title>&#45;3860120985374492386&#45;&gt;1091075960866584196</title>
<path fill="none" stroke="black" d="M1722.17,-108.48C1698.29,-117.87 1668.65,-129.53 1643.36,-139.47"/>
<polygon fill="black" stroke="black" points="1642.26,-136.15 1634.23,-143.06 1644.82,-142.66 1642.26,-136.15"/>
</g>
<!-- &#45;8753195014347188752 -->
<g id="node5" class="node">
<title>&#45;8753195014347188752</title>
<g id="a_node5"><a xlink:title="A Materialized Layer with 2 Tasks.&#10;">
<polygon fill="none" stroke="black" points="229.38,-108 103.88,-108 103.88,-72 229.38,-72 229.38,-108"/>
<text text-anchor="middle" x="166.62" y="-81.5" font-family="Helvetica,sans-Serif" font-size="20.00">(&#39;sum&#45;#0&#39;, 4)</text>
</a>
</g>
</g>
<!-- 7598716716968582621 -->
<g id="node12" class="node">
<title>7598716716968582621</title>
<g id="a_node12"><a xlink:title="A Materialized Layer with 2 Tasks.&#10;">
<polygon fill="none" stroke="black" points="617.12,-180 430.12,-180 430.12,-144 617.12,-144 617.12,-180"/>
<text text-anchor="middle" x="523.62" y="-153.5" font-family="Helvetica,sans-Serif" font-size="20.00">(&#39;sum&#45;partial&#45;#1&#39;, 1)</text>
</a>
</g>
</g>
<!-- &#45;8753195014347188752&#45;&gt;7598716716968582621 -->
<g id="edge15" class="edge">
<title>&#45;8753195014347188752&#45;&gt;7598716716968582621</title>
<path fill="none" stroke="black" d="M229.63,-103.35C283.26,-113.87 361.26,-129.16 423.45,-141.36"/>
<polygon fill="black" stroke="black" points="422.5,-144.74 432.98,-143.23 423.84,-137.87 422.5,-144.74"/>
</g>
<!-- &#45;6643911641229558455 -->
<g id="node6" class="node">
<title>&#45;6643911641229558455</title>
<g id="a_node6"><a xlink:title="A Materialized Layer with 2 Tasks.&#10;">
<polygon fill="none" stroke="black" points="407.38,-108 281.88,-108 281.88,-72 407.38,-72 407.38,-108"/>
<text text-anchor="middle" x="344.62" y="-81.5" font-family="Helvetica,sans-Serif" font-size="20.00">(&#39;sum&#45;#0&#39;, 5)</text>
</a>
</g>
</g>
<!-- &#45;6643911641229558455&#45;&gt;7598716716968582621 -->
<g id="edge16" class="edge">
<title>&#45;6643911641229558455&#45;&gt;7598716716968582621</title>
<path fill="none" stroke="black" d="M389.33,-108.48C413.34,-117.87 443.15,-129.53 468.58,-139.47"/>
<polygon fill="black" stroke="black" points="467.18,-142.68 477.77,-143.07 469.73,-136.17 467.18,-142.68"/>
</g>
<!-- 6909758403507296795 -->
<g id="node7" class="node">
<title>6909758403507296795</title>
<g id="a_node7"><a xlink:title="A Materialized Layer with 2 Tasks.&#10;">
<polygon fill="none" stroke="black" points="586.38,-108 460.88,-108 460.88,-72 586.38,-72 586.38,-108"/>
<text text-anchor="middle" x="523.62" y="-81.5" font-family="Helvetica,sans-Serif" font-size="20.00">(&#39;sum&#45;#0&#39;, 6)</text>
</a>
</g>
</g>
<!-- 6909758403507296795&#45;&gt;7598716716968582621 -->
<g id="edge17" class="edge">
<title>6909758403507296795&#45;&gt;7598716716968582621</title>
<path fill="none" stroke="black" d="M523.62,-108.3C523.62,-115.59 523.62,-124.27 523.62,-132.46"/>
<polygon fill="black" stroke="black" points="520.13,-132.38 523.63,-142.38 527.13,-132.38 520.13,-132.38"/>
</g>
<!-- &#45;5029344914100256396 -->
<g id="node8" class="node">
<title>&#45;5029344914100256396</title>
<g id="a_node8"><a xlink:title="A Materialized Layer with 2 Tasks.&#10;">
<polygon fill="none" stroke="black" points="764.38,-108 638.88,-108 638.88,-72 764.38,-72 764.38,-108"/>
<text text-anchor="middle" x="701.62" y="-81.5" font-family="Helvetica,sans-Serif" font-size="20.00">(&#39;sum&#45;#0&#39;, 7)</text>
</a>
</g>
</g>
<!-- &#45;5029344914100256396&#45;&gt;7598716716968582621 -->
<g id="edge18" class="edge">
<title>&#45;5029344914100256396&#45;&gt;7598716716968582621</title>
<path fill="none" stroke="black" d="M657.17,-108.48C633.29,-117.87 603.65,-129.53 578.36,-139.47"/>
<polygon fill="black" stroke="black" points="577.26,-136.15 569.23,-143.06 579.82,-142.66 577.26,-136.15"/>
</g>
<!-- 8524325130636598854 -->
<g id="node9" class="node">
<title>8524325130636598854</title>
<g id="a_node9"><a xlink:title="A Materialized Layer with 2 Tasks.&#10;">
<polygon fill="none" stroke="black" points="1029.38,-108 903.88,-108 903.88,-72 1029.38,-72 1029.38,-108"/>
<text text-anchor="middle" x="966.62" y="-81.5" font-family="Helvetica,sans-Serif" font-size="20.00">(&#39;sum&#45;#0&#39;, 8)</text>
</a>
</g>
</g>
<!-- 2705642687995886255 -->
<g id="node13" class="node">
<title>2705642687995886255</title>
<g id="a_node13"><a xlink:title="A Materialized Layer with 2 Tasks.&#10;">
<polygon fill="none" stroke="black" points="1149.12,-180 962.12,-180 962.12,-144 1149.12,-144 1149.12,-180"/>
<text text-anchor="middle" x="1055.62" y="-153.5" font-family="Helvetica,sans-Serif" font-size="20.00">(&#39;sum&#45;partial&#45;#1&#39;, 2)</text>
</a>
</g>
</g>
<!-- 8524325130636598854&#45;&gt;2705642687995886255 -->
<g id="edge19" class="edge">
<title>8524325130636598854&#45;&gt;2705642687995886255</title>
<path fill="none" stroke="black" d="M988.63,-108.3C999.54,-116.89 1012.9,-127.39 1024.81,-136.76"/>
<polygon fill="black" stroke="black" points="1022.36,-139.29 1032.38,-142.72 1026.68,-133.78 1022.36,-139.29"/>
</g>
<!-- &#45;7813135569955322465 -->
<g id="node10" class="node">
<title>&#45;7813135569955322465</title>
<g id="a_node10"><a xlink:title="A Materialized Layer with 2 Tasks.&#10;">
<polygon fill="none" stroke="black" points="1191.38,-108 1065.88,-108 1065.88,-72 1191.38,-72 1191.38,-108"/>
<text text-anchor="middle" x="1128.62" y="-81.5" font-family="Helvetica,sans-Serif" font-size="20.00">(&#39;sum&#45;#0&#39;, 9)</text>
</a>
</g>
</g>
<!-- &#45;7813135569955322465&#45;&gt;2705642687995886255 -->
<g id="edge20" class="edge">
<title>&#45;7813135569955322465&#45;&gt;2705642687995886255</title>
<path fill="none" stroke="black" d="M1110.58,-108.3C1101.89,-116.63 1091.31,-126.78 1081.77,-135.93"/>
<polygon fill="black" stroke="black" points="1079.6,-133.16 1074.81,-142.61 1084.45,-138.21 1079.6,-133.16"/>
</g>
<!-- &#45;3935086119963689027 -->
<g id="node14" class="node">
<title>&#45;3935086119963689027</title>
<g id="a_node14"><a xlink:title="A Materialized Layer with 2 Tasks.&#10;">
<polygon fill="none" stroke="black" points="1158.88,-252 952.38,-252 952.38,-216 1158.88,-216 1158.88,-252"/>
<text text-anchor="middle" x="1055.62" y="-225.5" font-family="Helvetica,sans-Serif" font-size="20.00">(&#39;sum&#45;aggregate&#45;#2&#39;,)</text>
</a>
</g>
</g>
<!-- 1091075960866584196&#45;&gt;&#45;3935086119963689027 -->
<g id="edge21" class="edge">
<title>1091075960866584196&#45;&gt;&#45;3935086119963689027</title>
<path fill="none" stroke="black" d="M1494.87,-175.31C1404.5,-187.18 1267.58,-205.16 1170.66,-217.89"/>
<polygon fill="black" stroke="black" points="1170.3,-214.41 1160.84,-219.18 1171.21,-221.35 1170.3,-214.41"/>
</g>
<!-- 7598716716968582621&#45;&gt;&#45;3935086119963689027 -->
<g id="edge22" class="edge">
<title>7598716716968582621&#45;&gt;&#45;3935086119963689027</title>
<path fill="none" stroke="black" d="M617.51,-175.35C707.75,-187.23 844.31,-205.19 940.94,-217.91"/>
<polygon fill="black" stroke="black" points="940.35,-221.36 950.72,-219.2 941.27,-214.42 940.35,-221.36"/>
</g>
<!-- 2705642687995886255&#45;&gt;&#45;3935086119963689027 -->
<g id="edge23" class="edge">
<title>2705642687995886255&#45;&gt;&#45;3935086119963689027</title>
<path fill="none" stroke="black" d="M1055.62,-180.3C1055.62,-187.59 1055.62,-196.27 1055.62,-204.46"/>
<polygon fill="black" stroke="black" points="1052.13,-204.38 1055.63,-214.38 1059.13,-204.38 1052.13,-204.38"/>
</g>
<!-- &#45;2479143426315085175 -->
<g id="node15" class="node">
<title>&#45;2479143426315085175</title>
<g id="a_node15"><a xlink:title="A Materialized Layer with 2 Tasks.&#10;">
<polygon fill="none" stroke="black" points="1260.25,-36 1065,-36 1065,0 1260.25,0 1260.25,-36"/>
<text text-anchor="middle" x="1162.62" y="-9.5" font-family="Helvetica,sans-Serif" font-size="20.00">(&#39;arange&#45;sum&#45;#0&#39;, 9)</text>
</a>
</g>
</g>
<!-- &#45;2479143426315085175&#45;&gt;&#45;7813135569955322465 -->
<g id="edge10" class="edge">
<title>&#45;2479143426315085175&#45;&gt;&#45;7813135569955322465</title>
<path fill="none" stroke="black" d="M1154.22,-36.3C1150.51,-43.93 1146.07,-53.08 1141.93,-61.6"/>
<polygon fill="black" stroke="black" points="1138.81,-60.01 1137.59,-70.53 1145.11,-63.07 1138.81,-60.01"/>
</g>
<!-- &#45;8986784182417083600 -->
<g id="node16" class="node">
<title>&#45;8986784182417083600</title>
<g id="a_node16"><a xlink:title="A Materialized Layer with 2 Tasks.&#10;">
<polygon fill="none" stroke="black" points="1047.25,-36 852,-36 852,0 1047.25,0 1047.25,-36"/>
<text text-anchor="middle" x="949.62" y="-9.5" font-family="Helvetica,sans-Serif" font-size="20.00">(&#39;arange&#45;sum&#45;#0&#39;, 8)</text>
</a>
</g>
</g>
<!-- &#45;8986784182417083600&#45;&gt;8524325130636598854 -->
<g id="edge9" class="edge">
<title>&#45;8986784182417083600&#45;&gt;8524325130636598854</title>
<path fill="none" stroke="black" d="M953.83,-36.3C955.62,-43.68 957.75,-52.48 959.76,-60.75"/>
<polygon fill="black" stroke="black" points="956.35,-61.53 962.11,-70.42 963.15,-59.88 956.35,-61.53"/>
</g>
<!-- 304647229539980894 -->
<g id="node17" class="node">
<title>304647229539980894</title>
<g id="a_node17"><a xlink:title="A Materialized Layer with 2 Tasks.&#10;">
<polygon fill="none" stroke="black" points="834.25,-36 639,-36 639,0 834.25,0 834.25,-36"/>
<text text-anchor="middle" x="736.62" y="-9.5" font-family="Helvetica,sans-Serif" font-size="20.00">(&#39;arange&#45;sum&#45;#0&#39;, 7)</text>
</a>
</g>
</g>
<!-- 304647229539980894&#45;&gt;&#45;5029344914100256396 -->
<g id="edge8" class="edge">
<title>304647229539980894&#45;&gt;&#45;5029344914100256396</title>
<path fill="none" stroke="black" d="M727.97,-36.3C724.16,-43.93 719.58,-53.08 715.32,-61.6"/>
<polygon fill="black" stroke="black" points="712.2,-60.03 710.85,-70.54 718.46,-63.16 712.2,-60.03"/>
</g>
<!-- &#45;6202993526562017531 -->
<g id="node18" class="node">
<title>&#45;6202993526562017531</title>
<g id="a_node18"><a xlink:title="A Materialized Layer with 2 Tasks.&#10;">
<polygon fill="none" stroke="black" points="621.25,-36 426,-36 426,0 621.25,0 621.25,-36"/>
<text text-anchor="middle" x="523.62" y="-9.5" font-family="Helvetica,sans-Serif" font-size="20.00">(&#39;arange&#45;sum&#45;#0&#39;, 6)</text>
</a>
</g>
</g>
<!-- &#45;6202993526562017531&#45;&gt;6909758403507296795 -->
<g id="edge7" class="edge">
<title>&#45;6202993526562017531&#45;&gt;6909758403507296795</title>
<path fill="none" stroke="black" d="M523.62,-36.3C523.62,-43.59 523.62,-52.27 523.62,-60.46"/>
<polygon fill="black" stroke="black" points="520.13,-60.38 523.63,-70.38 527.13,-60.38 520.13,-60.38"/>
</g>
<!-- 5736109791045535660 -->
<g id="node19" class="node">
<title>5736109791045535660</title>
<g id="a_node19"><a xlink:title="A Materialized Layer with 2 Tasks.&#10;">
<polygon fill="none" stroke="black" points="408.25,-36 213,-36 213,0 408.25,0 408.25,-36"/>
<text text-anchor="middle" x="310.62" y="-9.5" font-family="Helvetica,sans-Serif" font-size="20.00">(&#39;arange&#45;sum&#45;#0&#39;, 5)</text>
</a>
</g>
</g>
<!-- 5736109791045535660&#45;&gt;&#45;6643911641229558455 -->
<g id="edge6" class="edge">
<title>5736109791045535660&#45;&gt;&#45;6643911641229558455</title>
<path fill="none" stroke="black" d="M319.03,-36.3C322.74,-43.93 327.18,-53.08 331.32,-61.6"/>
<polygon fill="black" stroke="black" points="328.14,-63.07 335.66,-70.53 334.44,-60.01 328.14,-63.07"/>
</g>
<!-- &#45;7817560253691319590 -->
<g id="node20" class="node">
<title>&#45;7817560253691319590</title>
<g id="a_node20"><a xlink:title="A Materialized Layer with 2 Tasks.&#10;">
<polygon fill="none" stroke="black" points="195.25,-36 0,-36 0,0 195.25,0 195.25,-36"/>
<text text-anchor="middle" x="97.62" y="-9.5" font-family="Helvetica,sans-Serif" font-size="20.00">(&#39;arange&#45;sum&#45;#0&#39;, 4)</text>
</a>
</g>
</g>
<!-- &#45;7817560253691319590&#45;&gt;&#45;8753195014347188752 -->
<g id="edge5" class="edge">
<title>&#45;7817560253691319590&#45;&gt;&#45;8753195014347188752</title>
<path fill="none" stroke="black" d="M114.68,-36.3C122.87,-44.61 132.84,-54.72 141.84,-63.86"/>
<polygon fill="black" stroke="black" points="139.19,-66.15 148.7,-70.82 144.18,-61.24 139.19,-66.15"/>
</g>
<!-- 8519900446900601729 -->
<g id="node21" class="node">
<title>8519900446900601729</title>
<g id="a_node21"><a xlink:title="A Materialized Layer with 2 Tasks.&#10;">
<polygon fill="none" stroke="black" points="1899.25,-36 1704,-36 1704,0 1899.25,0 1899.25,-36"/>
<text text-anchor="middle" x="1801.62" y="-9.5" font-family="Helvetica,sans-Serif" font-size="20.00">(&#39;arange&#45;sum&#45;#0&#39;, 3)</text>
</a>
</g>
</g>
<!-- 8519900446900601729&#45;&gt;&#45;3860120985374492386 -->
<g id="edge4" class="edge">
<title>8519900446900601729&#45;&gt;&#45;3860120985374492386</title>
<path fill="none" stroke="black" d="M1792.97,-36.3C1789.16,-43.93 1784.58,-53.08 1780.32,-61.6"/>
<polygon fill="black" stroke="black" points="1777.2,-60.03 1775.85,-70.54 1783.46,-63.16 1777.2,-60.03"/>
</g>
<!-- &#45;5033769597836253521 -->
<g id="node22" class="node">
<title>&#45;5033769597836253521</title>
<g id="a_node22"><a xlink:title="A Materialized Layer with 2 Tasks.&#10;">
<polygon fill="none" stroke="black" points="1686.25,-36 1491,-36 1491,0 1686.25,0 1686.25,-36"/>
<text text-anchor="middle" x="1588.62" y="-9.5" font-family="Helvetica,sans-Serif" font-size="20.00">(&#39;arange&#45;sum&#45;#0&#39;, 2)</text>
</a>
</g>
</g>
<!-- &#45;5033769597836253521&#45;&gt;8078982332233060805 -->
<g id="edge3" class="edge">
<title>&#45;5033769597836253521&#45;&gt;8078982332233060805</title>
<path fill="none" stroke="black" d="M1588.62,-36.3C1588.62,-43.59 1588.62,-52.27 1588.62,-60.46"/>
<polygon fill="black" stroke="black" points="1585.13,-60.38 1588.63,-70.38 1592.13,-60.38 1585.13,-60.38"/>
</g>
<!-- 6905333719771299670 -->
<g id="node23" class="node">
<title>6905333719771299670</title>
<g id="a_node23"><a xlink:title="A Materialized Layer with 2 Tasks.&#10;">
<polygon fill="none" stroke="black" points="1473.25,-36 1278,-36 1278,0 1473.25,0 1473.25,-36"/>
<text text-anchor="middle" x="1375.62" y="-9.5" font-family="Helvetica,sans-Serif" font-size="20.00">(&#39;arange&#45;sum&#45;#0&#39;, 1)</text>
</a>
</g>
</g>
<!-- 6905333719771299670&#45;&gt;1571341576131062380 -->
<g id="edge2" class="edge">
<title>6905333719771299670&#45;&gt;1571341576131062380</title>
<path fill="none" stroke="black" d="M1384.03,-36.3C1387.74,-43.93 1392.18,-53.08 1396.32,-61.6"/>
<polygon fill="black" stroke="black" points="1393.14,-63.07 1400.66,-70.53 1399.44,-60.01 1393.14,-63.07"/>
</g>
<!-- &#45;6648336324965555580 -->
<g id="node24" class="node">
<title>&#45;6648336324965555580</title>
<g id="a_node24"><a xlink:title="A Materialized Layer with 2 Tasks.&#10;">
<polygon fill="none" stroke="black" points="2112.25,-36 1917,-36 1917,0 2112.25,0 2112.25,-36"/>
<text text-anchor="middle" x="2014.62" y="-9.5" font-family="Helvetica,sans-Serif" font-size="20.00">(&#39;arange&#45;sum&#45;#0&#39;, 0)</text>
</a>
</g>
</g>
<!-- &#45;6648336324965555580&#45;&gt;&#45;7583971085621424742 -->
<g id="edge1" class="edge">
<title>&#45;6648336324965555580&#45;&gt;&#45;7583971085621424742</title>
<path fill="none" stroke="black" d="M2001.77,-36.3C1995.85,-44.27 1988.7,-53.9 1982.14,-62.74"/>
<polygon fill="black" stroke="black" points="1979.39,-60.57 1976.23,-70.68 1985.01,-64.74 1979.39,-60.57"/>
</g>
</g>
</svg>
