<?xml version="1.0" encoding="UTF-8" standalone="no"?>
<!DOCTYPE svg PUBLIC "-//W3C//DTD SVG 1.1//EN"
 "http://www.w3.org/Graphics/SVG/1.1/DTD/svg11.dtd">
<!-- Generated by graphviz version 9.0.0 (20230911.1827)
 -->
<!-- Pages: 1 -->
<svg width="286pt" height="260pt"
 viewBox="0.00 0.00 286.00 260.00" xmlns="http://www.w3.org/2000/svg" xmlns:xlink="http://www.w3.org/1999/xlink">
<g id="graph0" class="graph" transform="scale(1 1) rotate(0) translate(4 256)">
<polygon fill="white" stroke="none" points="-4,4 -4,-256 282,-256 282,4 -4,4"/>
<!-- 5506137328739251256 -->
<g id="node1" class="node">
<title>5506137328739251256</title>
<g id="a_node1"><a xlink:title="A Blockwise Layer with 4 Tasks.&#10;Array Shape: (4,)&#10;Data Type: int64&#10;Chunk Size: (1,)&#10;Chunk Type: numpy.ndarray&#10;">
<polygon fill="none" stroke="black" points="212.5,-252 133.5,-252 133.5,-216 212.5,-216 212.5,-252"/>
<text text-anchor="middle" x="173" y="-225.5" font-family="Helvetica,sans-Serif" font-size="20.00">add&#45;#0</text>
</a>
</g>
</g>
<!-- &#45;5437951880726234776 -->
<g id="node2" class="node">
<title>&#45;5437951880726234776</title>
<g id="a_node2"><a xlink:title="A Blockwise Layer with 4 Tasks.&#10;Array Shape: (4,)&#10;Data Type: int64&#10;Chunk Size: (1,)&#10;Chunk Type: numpy.ndarray&#10;">
<polygon fill="none" stroke="black" points="246.5,-180 167.5,-180 167.5,-144 246.5,-144 246.5,-180"/>
<text text-anchor="middle" x="207" y="-153.5" font-family="Helvetica,sans-Serif" font-size="20.00">add&#45;#1</text>
</a>
</g>
</g>
<!-- &#45;5437951880726234776&#45;&gt;5506137328739251256 -->
<g id="edge1" class="edge">
<title>&#45;5437951880726234776&#45;&gt;5506137328739251256</title>
<path fill="none" stroke="black" d="M198.6,-180.3C194.89,-187.93 190.44,-197.08 186.31,-205.6"/>
<polygon fill="black" stroke="black" points="183.19,-204.01 181.97,-214.53 189.49,-207.07 183.19,-204.01"/>
</g>
<!-- &#45;633035683097546189 -->
<g id="node3" class="node">
<title>&#45;633035683097546189</title>
<g id="a_node3"><a xlink:title="A Materialized Layer with 4 Tasks.&#10;Array Shape: (4,)&#10;Data Type: int64&#10;Chunk Size: (1,)&#10;Chunk Type: numpy.ndarray&#10;">
<polygon fill="none" stroke="black" points="260.5,-36 169.5,-36 169.5,0 260.5,0 260.5,-36"/>
<text text-anchor="middle" x="215" y="-9.5" font-family="Helvetica,sans-Serif" font-size="20.00">array&#45;#2</text>
</a>
</g>
</g>
<!-- 2079491262785503324 -->
<g id="node4" class="node">
<title>2079491262785503324</title>
<g id="a_node4"><a xlink:title="A Blockwise Layer with 4 Tasks.&#10;Array Shape: (4,)&#10;Data Type: int64&#10;Chunk Size: (1,)&#10;Chunk Type: numpy.ndarray&#10;">
<polygon fill="none" stroke="black" points="278,-108 196,-108 196,-72 278,-72 278,-108"/>
<text text-anchor="middle" x="237" y="-81.5" font-family="Helvetica,sans-Serif" font-size="20.00">pow&#45;#3</text>
</a>
</g>
</g>
<!-- &#45;633035683097546189&#45;&gt;2079491262785503324 -->
<g id="edge5" class="edge">
<title>&#45;633035683097546189&#45;&gt;2079491262785503324</title>
<path fill="none" stroke="black" d="M220.44,-36.3C222.78,-43.76 225.58,-52.68 228.21,-61.03"/>
<polygon fill="black" stroke="black" points="224.83,-61.96 231.17,-70.45 231.51,-59.86 224.83,-61.96"/>
</g>
<!-- &#45;4911422627829262864 -->
<g id="node7" class="node">
<title>&#45;4911422627829262864</title>
<g id="a_node7"><a xlink:title="A Blockwise Layer with 4 Tasks.&#10;Array Shape: (4,)&#10;Data Type: int64&#10;Chunk Size: (1,)&#10;Chunk Type: numpy.ndarray&#10;">
<polygon fill="none" stroke="black" points="177.75,-108 100.25,-108 100.25,-72 177.75,-72 177.75,-108"/>
<text text-anchor="middle" x="139" y="-81.5" font-family="Helvetica,sans-Serif" font-size="20.00">mul&#45;#6</text>
</a>
</g>
</g>
<!-- &#45;633035683097546189&#45;&gt;&#45;4911422627829262864 -->
<g id="edge7" class="edge">
<title>&#45;633035683097546189&#45;&gt;&#45;4911422627829262864</title>
<path fill="none" stroke="black" d="M196.21,-36.3C187.17,-44.63 176.16,-54.78 166.22,-63.93"/>
<polygon fill="black" stroke="black" points="163.93,-61.28 158.95,-70.63 168.67,-66.43 163.93,-61.28"/>
</g>
<!-- 2079491262785503324&#45;&gt;&#45;5437951880726234776 -->
<g id="edge4" class="edge">
<title>2079491262785503324&#45;&gt;&#45;5437951880726234776</title>
<path fill="none" stroke="black" d="M229.58,-108.3C226.35,-115.85 222.48,-124.88 218.86,-133.32"/>
<polygon fill="black" stroke="black" points="215.65,-131.93 214.93,-142.5 222.08,-134.69 215.65,-131.93"/>
</g>
<!-- &#45;4061364709944745386 -->
<g id="node5" class="node">
<title>&#45;4061364709944745386</title>
<g id="a_node5"><a xlink:title="A Materialized Layer with 4 Tasks.&#10;Array Shape: (4,)&#10;Data Type: int64&#10;Chunk Size: (1,)&#10;Chunk Type: numpy.ndarray&#10;">
<polygon fill="none" stroke="black" points="129.5,-36 38.5,-36 38.5,0 129.5,0 129.5,-36"/>
<text text-anchor="middle" x="84" y="-9.5" font-family="Helvetica,sans-Serif" font-size="20.00">array&#45;#4</text>
</a>
</g>
</g>
<!-- 4094382889602447321 -->
<g id="node6" class="node">
<title>4094382889602447321</title>
<g id="a_node6"><a xlink:title="A Blockwise Layer with 4 Tasks.&#10;Array Shape: (4,)&#10;Data Type: int64&#10;Chunk Size: (1,)&#10;Chunk Type: numpy.ndarray&#10;">
<polygon fill="none" stroke="black" points="82,-108 0,-108 0,-72 82,-72 82,-108"/>
<text text-anchor="middle" x="41" y="-81.5" font-family="Helvetica,sans-Serif" font-size="20.00">pow&#45;#5</text>
</a>
</g>
</g>
<!-- &#45;4061364709944745386&#45;&gt;4094382889602447321 -->
<g id="edge6" class="edge">
<title>&#45;4061364709944745386&#45;&gt;4094382889602447321</title>
<path fill="none" stroke="black" d="M73.37,-36.3C68.58,-44.1 62.81,-53.49 57.48,-62.17"/>
<polygon fill="black" stroke="black" points="54.55,-60.25 52.3,-70.61 60.52,-63.92 54.55,-60.25"/>
</g>
<!-- &#45;4061364709944745386&#45;&gt;&#45;4911422627829262864 -->
<g id="edge8" class="edge">
<title>&#45;4061364709944745386&#45;&gt;&#45;4911422627829262864</title>
<path fill="none" stroke="black" d="M97.6,-36.3C103.92,-44.36 111.58,-54.11 118.59,-63.02"/>
<polygon fill="black" stroke="black" points="115.7,-65 124.63,-70.71 121.2,-60.68 115.7,-65"/>
</g>
<!-- 4094382889602447321&#45;&gt;&#45;5437951880726234776 -->
<g id="edge3" class="edge">
<title>4094382889602447321&#45;&gt;&#45;5437951880726234776</title>
<path fill="none" stroke="black" d="M82.46,-108.48C104.95,-117.96 132.91,-129.76 156.64,-139.76"/>
<polygon fill="black" stroke="black" points="155.24,-142.97 165.82,-143.63 157.96,-136.52 155.24,-142.97"/>
</g>
<!-- &#45;4911422627829262864&#45;&gt;5506137328739251256 -->
<g id="edge2" class="edge">
<title>&#45;4911422627829262864&#45;&gt;5506137328739251256</title>
<path fill="none" stroke="black" d="M142.72,-108.44C146.6,-126.42 152.95,-155.23 159,-180 160.97,-188.07 163.23,-196.81 165.35,-204.81"/>
<polygon fill="black" stroke="black" points="161.94,-205.64 167.91,-214.39 168.71,-203.83 161.94,-205.64"/>
</g>
</g>
</svg>
