<?xml version="1.0" encoding="UTF-8" standalone="no"?>
<!DOCTYPE svg PUBLIC "-//W3C//DTD SVG 1.1//EN"
 "http://www.w3.org/Graphics/SVG/1.1/DTD/svg11.dtd">
<!-- Generated by graphviz version 9.0.0 (20230911.1827)
 -->
<!-- Pages: 1 -->
<svg width="504pt" height="417pt"
 viewBox="0.00 0.00 504.12 417.25" xmlns="http://www.w3.org/2000/svg" xmlns:xlink="http://www.w3.org/1999/xlink">
<g id="graph0" class="graph" transform="scale(1 1) rotate(0) translate(4 413.25)">
<polygon fill="white" stroke="none" points="-4,4 -4,-413.25 500.12,-413.25 500.12,4 -4,4"/>
<!-- &#45;1348599721198137975 -->
<g id="node1" class="node">
<title>&#45;1348599721198137975</title>
<g id="a_node1"><a xlink:title="A Materialized Layer with 1 Tasks.&#10;">
<polygon fill="none" stroke="black" points="347.25,-337.25 268.25,-337.25 268.25,-301.25 347.25,-301.25 347.25,-337.25"/>
<text text-anchor="middle" x="307.75" y="-310.75" font-family="Helvetica,sans-Serif" font-size="20.00">add&#45;#0</text>
</a>
</g>
</g>
<!-- 5641547337353943620 -->
<g id="node12" class="node">
<title>5641547337353943620</title>
<g id="a_node12"><a xlink:title="A Materialized Layer with 1 Tasks.&#10;">
<polygon fill="none" stroke="black" points="363.38,-409.25 252.12,-409.25 252.12,-373.25 363.38,-373.25 363.38,-409.25"/>
<text text-anchor="middle" x="307.75" y="-382.75" font-family="Helvetica,sans-Serif" font-size="20.00">getattr&#45;#11</text>
</a>
</g>
</g>
<!-- &#45;1348599721198137975&#45;&gt;5641547337353943620 -->
<g id="edge13" class="edge">
<title>&#45;1348599721198137975&#45;&gt;5641547337353943620</title>
<path fill="none" stroke="black" d="M307.75,-337.55C307.75,-344.84 307.75,-353.52 307.75,-361.71"/>
<polygon fill="black" stroke="black" points="304.25,-361.63 307.75,-371.63 311.25,-361.63 304.25,-361.63"/>
</g>
<!-- 7593092529764424516 -->
<g id="node2" class="node">
<title>7593092529764424516</title>
<g id="a_node2"><a xlink:title="A Materialized Layer with 1 Tasks.&#10;">
<polygon fill="none" stroke="black" points="319.5,-265.25 218,-265.25 218,-229.25 319.5,-229.25 319.5,-265.25"/>
<text text-anchor="middle" x="268.75" y="-238.75" font-family="Helvetica,sans-Serif" font-size="20.00">add_d&#45;#1</text>
</a>
</g>
</g>
<!-- 7593092529764424516&#45;&gt;&#45;1348599721198137975 -->
<g id="edge1" class="edge">
<title>7593092529764424516&#45;&gt;&#45;1348599721198137975</title>
<path fill="none" stroke="black" d="M278.39,-265.55C282.69,-273.27 287.85,-282.54 292.64,-291.14"/>
<polygon fill="black" stroke="black" points="289.56,-292.79 297.48,-299.82 295.67,-289.38 289.56,-292.79"/>
</g>
<!-- &#45;633035683097546189 -->
<g id="node3" class="node">
<title>&#45;633035683097546189</title>
<g id="a_node3"><a xlink:title="A Materialized Layer with 4 Tasks.&#10;Array Shape: (4,)&#10;Data Type: int64&#10;Chunk Size: (1,)&#10;Chunk Type: numpy.ndarray&#10;">
<polygon fill="none" stroke="black" points="217.12,-49.25 50.38,-49.25 50.38,0 217.12,0 217.12,-49.25"/>
<text text-anchor="middle" x="133.75" y="-7.25" font-family="Helvetica,sans-Serif" font-size="40.00">array&#45;#2</text>
</a>
</g>
</g>
<!-- &#45;6598395849142276392 -->
<g id="node4" class="node">
<title>&#45;6598395849142276392</title>
<g id="a_node4"><a xlink:title="A Materialized Layer with 1 Tasks.&#10;">
<polygon fill="none" stroke="black" points="107.5,-121.25 0,-121.25 0,-85.25 107.5,-85.25 107.5,-121.25"/>
<text text-anchor="middle" x="53.75" y="-94.75" font-family="Helvetica,sans-Serif" font-size="20.00">finalize&#45;#3</text>
</a>
</g>
</g>
<!-- &#45;633035683097546189&#45;&gt;&#45;6598395849142276392 -->
<g id="edge5" class="edge">
<title>&#45;633035683097546189&#45;&gt;&#45;6598395849142276392</title>
<path fill="none" stroke="black" d="M108.88,-49.45C99.75,-58.19 89.38,-68.12 80.12,-76.99"/>
<polygon fill="black" stroke="black" points="77.89,-74.28 73.09,-83.72 82.74,-79.33 77.89,-74.28"/>
</g>
<!-- 8451320834271051115 -->
<g id="node10" class="node">
<title>8451320834271051115</title>
<g id="a_node10"><a xlink:title="A Materialized Layer with 1 Tasks.&#10;">
<polygon fill="none" stroke="black" points="233.5,-121.25 126,-121.25 126,-85.25 233.5,-85.25 233.5,-121.25"/>
<text text-anchor="middle" x="179.75" y="-94.75" font-family="Helvetica,sans-Serif" font-size="20.00">finalize&#45;#9</text>
</a>
</g>
</g>
<!-- &#45;633035683097546189&#45;&gt;8451320834271051115 -->
<g id="edge11" class="edge">
<title>&#45;633035683097546189&#45;&gt;8451320834271051115</title>
<path fill="none" stroke="black" d="M148.05,-49.45C152.93,-57.57 158.41,-66.71 163.43,-75.07"/>
<polygon fill="black" stroke="black" points="160.33,-76.7 168.48,-83.47 166.33,-73.1 160.33,-76.7"/>
</g>
<!-- &#45;3742374665649619185 -->
<g id="node5" class="node">
<title>&#45;3742374665649619185</title>
<g id="a_node5"><a xlink:title="A Materialized Layer with 1 Tasks.&#10;">
<polygon fill="none" stroke="black" points="170.12,-193.25 81.38,-193.25 81.38,-157.25 170.12,-157.25 170.12,-193.25"/>
<text text-anchor="middle" x="125.75" y="-166.75" font-family="Helvetica,sans-Serif" font-size="20.00">sq_d&#45;#4</text>
</a>
</g>
</g>
<!-- &#45;6598395849142276392&#45;&gt;&#45;3742374665649619185 -->
<g id="edge6" class="edge">
<title>&#45;6598395849142276392&#45;&gt;&#45;3742374665649619185</title>
<path fill="none" stroke="black" d="M71.55,-121.55C80.03,-129.8 90.34,-139.82 99.68,-148.9"/>
<polygon fill="black" stroke="black" points="97.21,-151.39 106.82,-155.85 102.09,-146.37 97.21,-151.39"/>
</g>
<!-- &#45;3742374665649619185&#45;&gt;7593092529764424516 -->
<g id="edge4" class="edge">
<title>&#45;3742374665649619185&#45;&gt;7593092529764424516</title>
<path fill="none" stroke="black" d="M161.47,-193.73C180.2,-202.91 203.36,-214.24 223.36,-224.03"/>
<polygon fill="black" stroke="black" points="221.61,-227.07 232.13,-228.32 224.69,-220.78 221.61,-227.07"/>
</g>
<!-- &#45;4061364709944745386 -->
<g id="node6" class="node">
<title>&#45;4061364709944745386</title>
<g id="a_node6"><a xlink:title="A Materialized Layer with 4 Tasks.&#10;Array Shape: (4,)&#10;Data Type: int64&#10;Chunk Size: (1,)&#10;Chunk Type: numpy.ndarray&#10;">
<polygon fill="none" stroke="black" points="435.12,-49.25 268.38,-49.25 268.38,0 435.12,0 435.12,-49.25"/>
<text text-anchor="middle" x="351.75" y="-7.25" font-family="Helvetica,sans-Serif" font-size="40.00">array&#45;#5</text>
</a>
</g>
</g>
<!-- &#45;5392206045712616460 -->
<g id="node7" class="node">
<title>&#45;5392206045712616460</title>
<g id="a_node7"><a xlink:title="A Materialized Layer with 1 Tasks.&#10;">
<polygon fill="none" stroke="black" points="359.5,-121.25 252,-121.25 252,-85.25 359.5,-85.25 359.5,-121.25"/>
<text text-anchor="middle" x="305.75" y="-94.75" font-family="Helvetica,sans-Serif" font-size="20.00">finalize&#45;#6</text>
</a>
</g>
</g>
<!-- &#45;4061364709944745386&#45;&gt;&#45;5392206045712616460 -->
<g id="edge7" class="edge">
<title>&#45;4061364709944745386&#45;&gt;&#45;5392206045712616460</title>
<path fill="none" stroke="black" d="M337.45,-49.45C332.57,-57.57 327.09,-66.71 322.07,-75.07"/>
<polygon fill="black" stroke="black" points="319.17,-73.1 317.02,-83.47 325.17,-76.7 319.17,-73.1"/>
</g>
<!-- &#45;942894293675732546 -->
<g id="node11" class="node">
<title>&#45;942894293675732546</title>
<g id="a_node11"><a xlink:title="A Materialized Layer with 1 Tasks.&#10;">
<polygon fill="none" stroke="black" points="496.12,-121.25 377.38,-121.25 377.38,-85.25 496.12,-85.25 496.12,-121.25"/>
<text text-anchor="middle" x="436.75" y="-94.75" font-family="Helvetica,sans-Serif" font-size="20.00">finalize&#45;#10</text>
</a>
</g>
</g>
<!-- &#45;4061364709944745386&#45;&gt;&#45;942894293675732546 -->
<g id="edge12" class="edge">
<title>&#45;4061364709944745386&#45;&gt;&#45;942894293675732546</title>
<path fill="none" stroke="black" d="M378.18,-49.45C387.98,-58.28 399.12,-68.32 409.03,-77.26"/>
<polygon fill="black" stroke="black" points="406.46,-79.66 416.23,-83.76 411.15,-74.46 406.46,-79.66"/>
</g>
<!-- &#45;754553635596603024 -->
<g id="node8" class="node">
<title>&#45;754553635596603024</title>
<g id="a_node8"><a xlink:title="A Materialized Layer with 1 Tasks.&#10;">
<polygon fill="none" stroke="black" points="313.12,-193.25 224.38,-193.25 224.38,-157.25 313.12,-157.25 313.12,-193.25"/>
<text text-anchor="middle" x="268.75" y="-166.75" font-family="Helvetica,sans-Serif" font-size="20.00">sq_d&#45;#7</text>
</a>
</g>
</g>
<!-- &#45;5392206045712616460&#45;&gt;&#45;754553635596603024 -->
<g id="edge8" class="edge">
<title>&#45;5392206045712616460&#45;&gt;&#45;754553635596603024</title>
<path fill="none" stroke="black" d="M296.6,-121.55C292.53,-129.27 287.63,-138.54 283.08,-147.14"/>
<polygon fill="black" stroke="black" points="280.08,-145.33 278.5,-155.81 286.27,-148.6 280.08,-145.33"/>
</g>
<!-- &#45;754553635596603024&#45;&gt;7593092529764424516 -->
<g id="edge3" class="edge">
<title>&#45;754553635596603024&#45;&gt;7593092529764424516</title>
<path fill="none" stroke="black" d="M268.75,-193.55C268.75,-200.84 268.75,-209.52 268.75,-217.71"/>
<polygon fill="black" stroke="black" points="265.25,-217.63 268.75,-227.63 272.25,-217.63 265.25,-217.63"/>
</g>
<!-- &#45;904235462228944619 -->
<g id="node9" class="node">
<title>&#45;904235462228944619</title>
<g id="a_node9"><a xlink:title="A Materialized Layer with 1 Tasks.&#10;">
<polygon fill="none" stroke="black" points="430.75,-193.25 330.75,-193.25 330.75,-157.25 430.75,-157.25 430.75,-193.25"/>
<text text-anchor="middle" x="380.75" y="-166.75" font-family="Helvetica,sans-Serif" font-size="20.00">mul_d&#45;#8</text>
</a>
</g>
</g>
<!-- &#45;904235462228944619&#45;&gt;&#45;1348599721198137975 -->
<g id="edge2" class="edge">
<title>&#45;904235462228944619&#45;&gt;&#45;1348599721198137975</title>
<path fill="none" stroke="black" d="M371.8,-193.66C359.31,-217.96 336.53,-262.28 321.77,-290.98"/>
<polygon fill="black" stroke="black" points="318.7,-289.3 317.24,-299.79 324.92,-292.5 318.7,-289.3"/>
</g>
<!-- 8451320834271051115&#45;&gt;&#45;904235462228944619 -->
<g id="edge9" class="edge">
<title>8451320834271051115&#45;&gt;&#45;904235462228944619</title>
<path fill="none" stroke="black" d="M229.95,-121.73C257.28,-131.25 291.28,-143.09 320.08,-153.12"/>
<polygon fill="black" stroke="black" points="318.82,-156.39 329.41,-156.37 321.12,-149.78 318.82,-156.39"/>
</g>
<!-- &#45;942894293675732546&#45;&gt;&#45;904235462228944619 -->
<g id="edge10" class="edge">
<title>&#45;942894293675732546&#45;&gt;&#45;904235462228944619</title>
<path fill="none" stroke="black" d="M422.91,-121.55C416.46,-129.61 408.67,-139.36 401.54,-148.27"/>
<polygon fill="black" stroke="black" points="398.89,-145.97 395.38,-155.96 404.36,-150.34 398.89,-145.97"/>
</g>
</g>
</svg>
