<?xml version="1.0" encoding="UTF-8" standalone="no"?>
<!DOCTYPE svg PUBLIC "-//W3C//DTD SVG 1.1//EN"
 "http://www.w3.org/Graphics/SVG/1.1/DTD/svg11.dtd">
<!-- Generated by graphviz version 12.1.2 (20240928.0832)
 -->
<!-- Pages: 1 -->
<svg width="3830pt" height="345pt"
 viewBox="0.00 0.00 3830.25 345.25" xmlns="http://www.w3.org/2000/svg" xmlns:xlink="http://www.w3.org/1999/xlink">
<g id="graph0" class="graph" transform="scale(1 1) rotate(0) translate(4 341.25)">
<polygon fill="white" stroke="none" points="-4,4 -4,-341.25 3826.25,-341.25 3826.25,4 -4,4"/>
<!-- 4730205943912289865 -->
<g id="node1" class="node">
<title>4730205943912289865</title>
<g id="a_node1"><a xlink:title="A Materialized Layer with 3 Tasks.&#10;">
<polygon fill="none" stroke="black" points="1844.38,-337.25 1748.88,-337.25 1748.88,-301.25 1844.38,-301.25 1844.38,-337.25"/>
<text text-anchor="middle" x="1796.62" y="-308.25" font-family="Helvetica,sans-Serif" font-size="25.00">add&#45;#0</text>
</a>
</g>
</g>
<!-- 1999298058508588639 -->
<g id="node2" class="node">
<title>1999298058508588639</title>
<g id="a_node2"><a xlink:title="A Materialized Layer with 3 Tasks.&#10;">
<polygon fill="none" stroke="black" points="1778.38,-265.25 1682.88,-265.25 1682.88,-229.25 1778.38,-229.25 1778.38,-265.25"/>
<text text-anchor="middle" x="1730.62" y="-236.25" font-family="Helvetica,sans-Serif" font-size="25.00">add&#45;#1</text>
</a>
</g>
</g>
<!-- 1999298058508588639&#45;&gt;4730205943912289865 -->
<g id="edge2" class="edge">
<title>1999298058508588639&#45;&gt;4730205943912289865</title>
<path fill="none" stroke="black" d="M1746.94,-265.55C1754.69,-273.78 1764.11,-283.77 1772.66,-292.83"/>
<polygon fill="black" stroke="black" points="1770.05,-295.17 1779.46,-300.04 1775.15,-290.37 1770.05,-295.17"/>
</g>
<!-- &#45;4588177576361219077 -->
<g id="node3" class="node">
<title>&#45;4588177576361219077</title>
<g id="a_node3"><a xlink:title="A Materialized Layer with 2 Tasks.&#10;">
<polygon fill="none" stroke="black" points="1106.88,-193.25 984.38,-193.25 984.38,-157.25 1106.88,-157.25 1106.88,-193.25"/>
<text text-anchor="middle" x="1045.62" y="-166.75" font-family="Helvetica,sans-Serif" font-size="20.00">add_unit&#45;#2</text>
</a>
</g>
</g>
<!-- &#45;4588177576361219077&#45;&gt;1999298058508588639 -->
<g id="edge4" class="edge">
<title>&#45;4588177576361219077&#45;&gt;1999298058508588639</title>
<path fill="none" stroke="black" d="M1107.36,-191.78C1110.14,-192.31 1112.91,-192.81 1115.62,-193.25 1317.88,-226.33 1561.14,-239.56 1671.29,-244.14"/>
<polygon fill="black" stroke="black" points="1670.83,-247.62 1680.96,-244.53 1671.11,-240.63 1670.83,-247.62"/>
</g>
<!-- 6263478741130638687 -->
<g id="node4" class="node">
<title>6263478741130638687</title>
<g id="a_node4"><a xlink:title="A Materialized Layer with 6 Tasks.&#10;">
<polygon fill="none" stroke="black" points="1024.38,-49.25 736.88,-49.25 736.88,0 1024.38,0 1024.38,-49.25"/>
<text text-anchor="middle" x="880.62" y="-7.25" font-family="Helvetica,sans-Serif" font-size="40.00">(&#39;arange&#45;#3&#39;, 0)</text>
</a>
</g>
</g>
<!-- 6578685679436907671 -->
<g id="node14" class="node">
<title>6578685679436907671</title>
<g id="a_node14"><a xlink:title="A Materialized Layer with 3 Tasks.&#10;">
<polygon fill="none" stroke="black" points="1353.25,-121.25 1206,-121.25 1206,-85.25 1353.25,-85.25 1353.25,-121.25"/>
<text text-anchor="middle" x="1279.62" y="-92.25" font-family="Helvetica,sans-Serif" font-size="25.00">(&#39;sub&#45;#4&#39;, 0)</text>
</a>
</g>
</g>
<!-- 6263478741130638687&#45;&gt;6578685679436907671 -->
<g id="edge5" class="edge">
<title>6263478741130638687&#45;&gt;6578685679436907671</title>
<path fill="none" stroke="black" d="M1011.83,-49.74C1065.94,-59.82 1129.53,-71.85 1194.94,-84.73"/>
<polygon fill="black" stroke="black" points="1193.91,-88.1 1204.4,-86.6 1195.26,-81.23 1193.91,-88.1"/>
</g>
<!-- 7834155512928498905 -->
<g id="node40" class="node">
<title>7834155512928498905</title>
<g id="a_node40"><a xlink:title="A Materialized Layer with 3 Tasks.&#10;">
<polygon fill="none" stroke="black" points="804.25,-121.25 603,-121.25 603,-85.25 804.25,-85.25 804.25,-121.25"/>
<text text-anchor="middle" x="703.62" y="-92.25" font-family="Helvetica,sans-Serif" font-size="25.00">(&#39;pow&#45;mul&#45;#6&#39;, 0)</text>
</a>
</g>
</g>
<!-- 6263478741130638687&#45;&gt;7834155512928498905 -->
<g id="edge49" class="edge">
<title>6263478741130638687&#45;&gt;7834155512928498905</title>
<path fill="none" stroke="black" d="M825.11,-49.66C802.45,-59.47 776.44,-70.73 754.31,-80.31"/>
<polygon fill="black" stroke="black" points="752.96,-77.08 745.17,-84.26 755.74,-83.5 752.96,-77.08"/>
</g>
<!-- &#45;3027952670826425807 -->
<g id="node5" class="node">
<title>&#45;3027952670826425807</title>
<g id="a_node5"><a xlink:title="A Materialized Layer with 6 Tasks.&#10;">
<polygon fill="none" stroke="black" points="701.38,-49.25 413.88,-49.25 413.88,0 701.38,0 701.38,-49.25"/>
<text text-anchor="middle" x="557.62" y="-7.25" font-family="Helvetica,sans-Serif" font-size="40.00">(&#39;arange&#45;#3&#39;, 1)</text>
</a>
</g>
</g>
<!-- &#45;5360417638170645520 -->
<g id="node15" class="node">
<title>&#45;5360417638170645520</title>
<g id="a_node15"><a xlink:title="A Materialized Layer with 3 Tasks.&#10;">
<polygon fill="none" stroke="black" points="969.25,-121.25 822,-121.25 822,-85.25 969.25,-85.25 969.25,-121.25"/>
<text text-anchor="middle" x="895.62" y="-92.25" font-family="Helvetica,sans-Serif" font-size="25.00">(&#39;sub&#45;#4&#39;, 1)</text>
</a>
</g>
</g>
<!-- &#45;3027952670826425807&#45;&gt;&#45;5360417638170645520 -->
<g id="edge6" class="edge">
<title>&#45;3027952670826425807&#45;&gt;&#45;5360417638170645520</title>
<path fill="none" stroke="black" d="M663.64,-49.66C710.94,-60.38 765.92,-72.84 810.48,-82.95"/>
<polygon fill="black" stroke="black" points="809.57,-86.33 820.09,-85.13 811.11,-79.5 809.57,-86.33"/>
</g>
<!-- &#45;4104947804679054286 -->
<g id="node43" class="node">
<title>&#45;4104947804679054286</title>
<g id="a_node43"><a xlink:title="A Materialized Layer with 3 Tasks.&#10;">
<polygon fill="none" stroke="black" points="420.25,-121.25 219,-121.25 219,-85.25 420.25,-85.25 420.25,-121.25"/>
<text text-anchor="middle" x="319.62" y="-92.25" font-family="Helvetica,sans-Serif" font-size="25.00">(&#39;pow&#45;mul&#45;#6&#39;, 1)</text>
</a>
</g>
</g>
<!-- &#45;3027952670826425807&#45;&gt;&#45;4104947804679054286 -->
<g id="edge52" class="edge">
<title>&#45;3027952670826425807&#45;&gt;&#45;4104947804679054286</title>
<path fill="none" stroke="black" d="M482.97,-49.66C451.41,-59.82 414.98,-71.55 384.55,-81.35"/>
<polygon fill="black" stroke="black" points="383.51,-78 375.07,-84.4 385.66,-84.67 383.51,-78"/>
</g>
<!-- 3479688085275572618 -->
<g id="node6" class="node">
<title>3479688085275572618</title>
<g id="a_node6"><a xlink:title="A Materialized Layer with 6 Tasks.&#10;">
<polygon fill="none" stroke="black" points="3769.38,-49.25 3481.88,-49.25 3481.88,0 3769.38,0 3769.38,-49.25"/>
<text text-anchor="middle" x="3625.62" y="-7.25" font-family="Helvetica,sans-Serif" font-size="40.00">(&#39;arange&#45;#3&#39;, 2)</text>
</a>
</g>
</g>
<!-- &#45;3251134265053015223 -->
<g id="node16" class="node">
<title>&#45;3251134265053015223</title>
<g id="a_node16"><a xlink:title="A Materialized Layer with 3 Tasks.&#10;">
<polygon fill="none" stroke="black" points="3603.25,-121.25 3456,-121.25 3456,-85.25 3603.25,-85.25 3603.25,-121.25"/>
<text text-anchor="middle" x="3529.62" y="-92.25" font-family="Helvetica,sans-Serif" font-size="25.00">(&#39;sub&#45;#4&#39;, 2)</text>
</a>
</g>
</g>
<!-- 3479688085275572618&#45;&gt;&#45;3251134265053015223 -->
<g id="edge7" class="edge">
<title>3479688085275572618&#45;&gt;&#45;3251134265053015223</title>
<path fill="none" stroke="black" d="M3595.51,-49.66C3584.23,-58.66 3571.41,-68.9 3560.1,-77.93"/>
<polygon fill="black" stroke="black" points="3558.22,-74.95 3552.59,-83.92 3562.59,-80.42 3558.22,-74.95"/>
</g>
<!-- &#45;8998021833651750652 -->
<g id="node36" class="node">
<title>&#45;8998021833651750652</title>
<g id="a_node36"><a xlink:title="A Materialized Layer with 3 Tasks.&#10;">
<polygon fill="none" stroke="black" points="3822.25,-121.25 3621,-121.25 3621,-85.25 3822.25,-85.25 3822.25,-121.25"/>
<text text-anchor="middle" x="3721.62" y="-92.25" font-family="Helvetica,sans-Serif" font-size="25.00">(&#39;pow&#45;mul&#45;#6&#39;, 2)</text>
</a>
</g>
</g>
<!-- 3479688085275572618&#45;&gt;&#45;8998021833651750652 -->
<g id="edge45" class="edge">
<title>3479688085275572618&#45;&gt;&#45;8998021833651750652</title>
<path fill="none" stroke="black" d="M3655.74,-49.66C3667.02,-58.66 3679.84,-68.9 3691.15,-77.93"/>
<polygon fill="black" stroke="black" points="3688.66,-80.42 3698.66,-83.92 3693.03,-74.95 3688.66,-80.42"/>
</g>
<!-- &#45;1413385943697123748 -->
<g id="node7" class="node">
<title>&#45;1413385943697123748</title>
<g id="a_node7"><a xlink:title="A Materialized Layer with 6 Tasks.&#10;">
<polygon fill="none" stroke="black" points="1339.38,-49.25 1051.88,-49.25 1051.88,0 1339.38,0 1339.38,-49.25"/>
<text text-anchor="middle" x="1195.62" y="-7.25" font-family="Helvetica,sans-Serif" font-size="40.00">(&#39;arange&#45;#3&#39;, 3)</text>
</a>
</g>
</g>
<!-- &#45;8144208294025711589 -->
<g id="node17" class="node">
<title>&#45;8144208294025711589</title>
<g id="a_node17"><a xlink:title="A Materialized Layer with 3 Tasks.&#10;">
<polygon fill="none" stroke="black" points="1518.25,-121.25 1371,-121.25 1371,-85.25 1518.25,-85.25 1518.25,-121.25"/>
<text text-anchor="middle" x="1444.62" y="-92.25" font-family="Helvetica,sans-Serif" font-size="25.00">(&#39;sub&#45;#4&#39;, 3)</text>
</a>
</g>
</g>
<!-- &#45;1413385943697123748&#45;&gt;&#45;8144208294025711589 -->
<g id="edge8" class="edge">
<title>&#45;1413385943697123748&#45;&gt;&#45;8144208294025711589</title>
<path fill="none" stroke="black" d="M1273.73,-49.66C1307.04,-59.91 1345.53,-71.76 1377.54,-81.61"/>
<polygon fill="black" stroke="black" points="1376.09,-84.82 1386.68,-84.42 1378.15,-78.13 1376.09,-84.82"/>
</g>
<!-- &#45;2490381077549752227 -->
<g id="node38" class="node">
<title>&#45;2490381077549752227</title>
<g id="a_node38"><a xlink:title="A Materialized Layer with 3 Tasks.&#10;">
<polygon fill="none" stroke="black" points="1188.25,-121.25 987,-121.25 987,-85.25 1188.25,-85.25 1188.25,-121.25"/>
<text text-anchor="middle" x="1087.62" y="-92.25" font-family="Helvetica,sans-Serif" font-size="25.00">(&#39;pow&#45;mul&#45;#6&#39;, 3)</text>
</a>
</g>
</g>
<!-- &#45;1413385943697123748&#45;&gt;&#45;2490381077549752227 -->
<g id="edge47" class="edge">
<title>&#45;1413385943697123748&#45;&gt;&#45;2490381077549752227</title>
<path fill="none" stroke="black" d="M1161.75,-49.66C1148.81,-58.84 1134.06,-69.3 1121.15,-78.46"/>
<polygon fill="black" stroke="black" points="1119.49,-75.35 1113.36,-83.99 1123.55,-81.06 1119.49,-75.35"/>
</g>
<!-- 5094254812404874677 -->
<g id="node8" class="node">
<title>5094254812404874677</title>
<g id="a_node8"><a xlink:title="A Materialized Layer with 6 Tasks.&#10;">
<polygon fill="none" stroke="black" points="2944.38,-49.25 2656.88,-49.25 2656.88,0 2944.38,0 2944.38,-49.25"/>
<text text-anchor="middle" x="2800.62" y="-7.25" font-family="Helvetica,sans-Serif" font-size="40.00">(&#39;arange&#45;#3&#39;, 4)</text>
</a>
</g>
</g>
<!-- &#45;1636567537923713164 -->
<g id="node18" class="node">
<title>&#45;1636567537923713164</title>
<g id="a_node18"><a xlink:title="A Materialized Layer with 3 Tasks.&#10;">
<polygon fill="none" stroke="black" points="2835.25,-121.25 2688,-121.25 2688,-85.25 2835.25,-85.25 2835.25,-121.25"/>
<text text-anchor="middle" x="2761.62" y="-92.25" font-family="Helvetica,sans-Serif" font-size="25.00">(&#39;sub&#45;#4&#39;, 4)</text>
</a>
</g>
</g>
<!-- 5094254812404874677&#45;&gt;&#45;1636567537923713164 -->
<g id="edge9" class="edge">
<title>5094254812404874677&#45;&gt;&#45;1636567537923713164</title>
<path fill="none" stroke="black" d="M2788.5,-49.45C2784.46,-57.39 2779.92,-66.31 2775.74,-74.52"/>
<polygon fill="black" stroke="black" points="2772.63,-72.92 2771.21,-83.42 2778.86,-76.1 2772.63,-72.92"/>
</g>
<!-- 6664931584202734895 -->
<g id="node42" class="node">
<title>6664931584202734895</title>
<g id="a_node42"><a xlink:title="A Materialized Layer with 3 Tasks.&#10;">
<polygon fill="none" stroke="black" points="3054.25,-121.25 2853,-121.25 2853,-85.25 3054.25,-85.25 3054.25,-121.25"/>
<text text-anchor="middle" x="2953.62" y="-92.25" font-family="Helvetica,sans-Serif" font-size="25.00">(&#39;pow&#45;mul&#45;#6&#39;, 4)</text>
</a>
</g>
</g>
<!-- 5094254812404874677&#45;&gt;6664931584202734895 -->
<g id="edge51" class="edge">
<title>5094254812404874677&#45;&gt;6664931584202734895</title>
<path fill="none" stroke="black" d="M2848.62,-49.66C2867.84,-59.29 2889.87,-70.32 2908.77,-79.79"/>
<polygon fill="black" stroke="black" points="2907.05,-82.84 2917.56,-84.19 2910.18,-76.58 2907.05,-82.84"/>
</g>
<!-- 7203538185522504974 -->
<g id="node9" class="node">
<title>7203538185522504974</title>
<g id="a_node9"><a xlink:title="A Materialized Layer with 6 Tasks.&#10;">
<polygon fill="none" stroke="black" points="1792.38,-49.25 1504.88,-49.25 1504.88,0 1792.38,0 1792.38,-49.25"/>
<text text-anchor="middle" x="1648.62" y="-7.25" font-family="Helvetica,sans-Serif" font-size="40.00">(&#39;arange&#45;#3&#39;, 5)</text>
</a>
</g>
</g>
<!-- &#45;6529641566896409530 -->
<g id="node19" class="node">
<title>&#45;6529641566896409530</title>
<g id="a_node19"><a xlink:title="A Materialized Layer with 3 Tasks.&#10;">
<polygon fill="none" stroke="black" points="1683.25,-121.25 1536,-121.25 1536,-85.25 1683.25,-85.25 1683.25,-121.25"/>
<text text-anchor="middle" x="1609.62" y="-92.25" font-family="Helvetica,sans-Serif" font-size="25.00">(&#39;sub&#45;#4&#39;, 5)</text>
</a>
</g>
</g>
<!-- 7203538185522504974&#45;&gt;&#45;6529641566896409530 -->
<g id="edge10" class="edge">
<title>7203538185522504974&#45;&gt;&#45;6529641566896409530</title>
<path fill="none" stroke="black" d="M1636.5,-49.45C1632.46,-57.39 1627.92,-66.31 1623.74,-74.52"/>
<polygon fill="black" stroke="black" points="1620.63,-72.92 1619.21,-83.42 1626.86,-76.1 1620.63,-72.92"/>
</g>
<!-- &#45;5274171733404818296 -->
<g id="node44" class="node">
<title>&#45;5274171733404818296</title>
<g id="a_node44"><a xlink:title="A Materialized Layer with 3 Tasks.&#10;">
<polygon fill="none" stroke="black" points="1902.25,-121.25 1701,-121.25 1701,-85.25 1902.25,-85.25 1902.25,-121.25"/>
<text text-anchor="middle" x="1801.62" y="-92.25" font-family="Helvetica,sans-Serif" font-size="25.00">(&#39;pow&#45;mul&#45;#6&#39;, 5)</text>
</a>
</g>
</g>
<!-- 7203538185522504974&#45;&gt;&#45;5274171733404818296 -->
<g id="edge53" class="edge">
<title>7203538185522504974&#45;&gt;&#45;5274171733404818296</title>
<path fill="none" stroke="black" d="M1696.62,-49.66C1715.84,-59.29 1737.87,-70.32 1756.77,-79.79"/>
<polygon fill="black" stroke="black" points="1755.05,-82.84 1765.56,-84.19 1758.18,-76.58 1755.05,-82.84"/>
</g>
<!-- 2310464156549808608 -->
<g id="node10" class="node">
<title>2310464156549808608</title>
<g id="a_node10"><a xlink:title="A Materialized Layer with 6 Tasks.&#10;">
<polygon fill="none" stroke="black" points="3376.38,-49.25 3088.88,-49.25 3088.88,0 3376.38,0 3376.38,-49.25"/>
<text text-anchor="middle" x="3232.62" y="-7.25" font-family="Helvetica,sans-Serif" font-size="40.00">(&#39;arange&#45;#3&#39;, 6)</text>
</a>
</g>
</g>
<!-- &#45;4420358193778779233 -->
<g id="node20" class="node">
<title>&#45;4420358193778779233</title>
<g id="a_node20"><a xlink:title="A Materialized Layer with 3 Tasks.&#10;">
<polygon fill="none" stroke="black" points="3219.25,-121.25 3072,-121.25 3072,-85.25 3219.25,-85.25 3219.25,-121.25"/>
<text text-anchor="middle" x="3145.62" y="-92.25" font-family="Helvetica,sans-Serif" font-size="25.00">(&#39;sub&#45;#4&#39;, 6)</text>
</a>
</g>
</g>
<!-- 2310464156549808608&#45;&gt;&#45;4420358193778779233 -->
<g id="edge11" class="edge">
<title>2310464156549808608&#45;&gt;&#45;4420358193778779233</title>
<path fill="none" stroke="black" d="M3205.57,-49.45C3195.54,-58.28 3184.14,-68.32 3174,-77.26"/>
<polygon fill="black" stroke="black" points="3171.8,-74.53 3166.61,-83.77 3176.43,-79.79 3171.8,-74.53"/>
</g>
<!-- 1233469022697180129 -->
<g id="node39" class="node">
<title>1233469022697180129</title>
<g id="a_node39"><a xlink:title="A Materialized Layer with 3 Tasks.&#10;">
<polygon fill="none" stroke="black" points="3438.25,-121.25 3237,-121.25 3237,-85.25 3438.25,-85.25 3438.25,-121.25"/>
<text text-anchor="middle" x="3337.62" y="-92.25" font-family="Helvetica,sans-Serif" font-size="25.00">(&#39;pow&#45;mul&#45;#6&#39;, 6)</text>
</a>
</g>
</g>
<!-- 2310464156549808608&#45;&gt;1233469022697180129 -->
<g id="edge48" class="edge">
<title>2310464156549808608&#45;&gt;1233469022697180129</title>
<path fill="none" stroke="black" d="M3265.56,-49.66C3278.02,-58.75 3292.2,-69.1 3304.66,-78.19"/>
<polygon fill="black" stroke="black" points="3302.44,-80.9 3312.58,-83.97 3306.56,-75.25 3302.44,-80.9"/>
</g>
<!-- 8818104912651807033 -->
<g id="node11" class="node">
<title>8818104912651807033</title>
<g id="a_node11"><a xlink:title="A Materialized Layer with 6 Tasks.&#10;">
<polygon fill="none" stroke="black" points="2176.38,-49.25 1888.88,-49.25 1888.88,0 2176.38,0 2176.38,-49.25"/>
<text text-anchor="middle" x="2032.62" y="-7.25" font-family="Helvetica,sans-Serif" font-size="40.00">(&#39;arange&#45;#3&#39;, 7)</text>
</a>
</g>
</g>
<!-- 9133311850958076017 -->
<g id="node21" class="node">
<title>9133311850958076017</title>
<g id="a_node21"><a xlink:title="A Materialized Layer with 3 Tasks.&#10;">
<polygon fill="none" stroke="black" points="2067.25,-121.25 1920,-121.25 1920,-85.25 2067.25,-85.25 2067.25,-121.25"/>
<text text-anchor="middle" x="1993.62" y="-92.25" font-family="Helvetica,sans-Serif" font-size="25.00">(&#39;sub&#45;#4&#39;, 7)</text>
</a>
</g>
</g>
<!-- 8818104912651807033&#45;&gt;9133311850958076017 -->
<g id="edge12" class="edge">
<title>8818104912651807033&#45;&gt;9133311850958076017</title>
<path fill="none" stroke="black" d="M2020.5,-49.45C2016.46,-57.39 2011.92,-66.31 2007.74,-74.52"/>
<polygon fill="black" stroke="black" points="2004.63,-72.92 2003.21,-83.42 2010.86,-76.1 2004.63,-72.92"/>
</g>
<!-- &#45;3659605006275516237 -->
<g id="node41" class="node">
<title>&#45;3659605006275516237</title>
<g id="a_node41"><a xlink:title="A Materialized Layer with 3 Tasks.&#10;">
<polygon fill="none" stroke="black" points="2286.25,-121.25 2085,-121.25 2085,-85.25 2286.25,-85.25 2286.25,-121.25"/>
<text text-anchor="middle" x="2185.62" y="-92.25" font-family="Helvetica,sans-Serif" font-size="25.00">(&#39;pow&#45;mul&#45;#6&#39;, 7)</text>
</a>
</g>
</g>
<!-- 8818104912651807033&#45;&gt;&#45;3659605006275516237 -->
<g id="edge50" class="edge">
<title>8818104912651807033&#45;&gt;&#45;3659605006275516237</title>
<path fill="none" stroke="black" d="M2080.62,-49.66C2099.84,-59.29 2121.87,-70.32 2140.77,-79.79"/>
<polygon fill="black" stroke="black" points="2139.05,-82.84 2149.56,-84.19 2142.18,-76.58 2139.05,-82.84"/>
</g>
<!-- 3925030883679110667 -->
<g id="node12" class="node">
<title>3925030883679110667</title>
<g id="a_node12"><a xlink:title="A Materialized Layer with 6 Tasks.&#10;">
<polygon fill="none" stroke="black" points="361.38,-49.25 73.88,-49.25 73.88,0 361.38,0 361.38,-49.25"/>
<text text-anchor="middle" x="217.62" y="-7.25" font-family="Helvetica,sans-Serif" font-size="40.00">(&#39;arange&#45;#3&#39;, 8)</text>
</a>
</g>
</g>
<!-- &#45;2805791466649477174 -->
<g id="node22" class="node">
<title>&#45;2805791466649477174</title>
<g id="a_node22"><a xlink:title="A Materialized Layer with 3 Tasks.&#10;">
<polygon fill="none" stroke="black" points="585.25,-121.25 438,-121.25 438,-85.25 585.25,-85.25 585.25,-121.25"/>
<text text-anchor="middle" x="511.62" y="-92.25" font-family="Helvetica,sans-Serif" font-size="25.00">(&#39;sub&#45;#4&#39;, 8)</text>
</a>
</g>
</g>
<!-- 3925030883679110667&#45;&gt;&#45;2805791466649477174 -->
<g id="edge13" class="edge">
<title>3925030883679110667&#45;&gt;&#45;2805791466649477174</title>
<path fill="none" stroke="black" d="M309.84,-49.66C349.69,-60.05 395.81,-72.07 433.89,-81.99"/>
<polygon fill="black" stroke="black" points="432.89,-85.35 443.45,-84.48 434.66,-78.57 432.89,-85.35"/>
</g>
<!-- &#45;1550321633157885940 -->
<g id="node45" class="node">
<title>&#45;1550321633157885940</title>
<g id="a_node45"><a xlink:title="A Materialized Layer with 3 Tasks.&#10;">
<polygon fill="none" stroke="black" points="201.25,-121.25 0,-121.25 0,-85.25 201.25,-85.25 201.25,-121.25"/>
<text text-anchor="middle" x="100.62" y="-92.25" font-family="Helvetica,sans-Serif" font-size="25.00">(&#39;pow&#45;mul&#45;#6&#39;, 8)</text>
</a>
</g>
</g>
<!-- 3925030883679110667&#45;&gt;&#45;1550321633157885940 -->
<g id="edge54" class="edge">
<title>3925030883679110667&#45;&gt;&#45;1550321633157885940</title>
<path fill="none" stroke="black" d="M180.93,-49.66C166.77,-58.93 150.62,-69.5 136.54,-78.73"/>
<polygon fill="black" stroke="black" points="134.89,-75.63 128.44,-84.03 138.72,-81.48 134.89,-75.63"/>
</g>
<!-- &#45;8014072433928442524 -->
<g id="node13" class="node">
<title>&#45;8014072433928442524</title>
<g id="a_node13"><a xlink:title="A Materialized Layer with 6 Tasks.&#10;">
<polygon fill="none" stroke="black" points="2579.38,-49.25 2291.88,-49.25 2291.88,0 2579.38,0 2579.38,-49.25"/>
<text text-anchor="middle" x="2435.62" y="-7.25" font-family="Helvetica,sans-Serif" font-size="40.00">(&#39;arange&#45;#3&#39;, 9)</text>
</a>
</g>
</g>
<!-- 3701849289452521251 -->
<g id="node23" class="node">
<title>3701849289452521251</title>
<g id="a_node23"><a xlink:title="A Materialized Layer with 3 Tasks.&#10;">
<polygon fill="none" stroke="black" points="2451.25,-121.25 2304,-121.25 2304,-85.25 2451.25,-85.25 2451.25,-121.25"/>
<text text-anchor="middle" x="2377.62" y="-92.25" font-family="Helvetica,sans-Serif" font-size="25.00">(&#39;sub&#45;#4&#39;, 9)</text>
</a>
</g>
</g>
<!-- &#45;8014072433928442524&#45;&gt;3701849289452521251 -->
<g id="edge14" class="edge">
<title>&#45;8014072433928442524&#45;&gt;3701849289452521251</title>
<path fill="none" stroke="black" d="M2417.59,-49.45C2411.31,-57.75 2404.22,-67.11 2397.78,-75.62"/>
<polygon fill="black" stroke="black" points="2395.01,-73.48 2391.77,-83.56 2400.6,-77.7 2395.01,-73.48"/>
</g>
<!-- &#45;6443395662130582306 -->
<g id="node37" class="node">
<title>&#45;6443395662130582306</title>
<g id="a_node37"><a xlink:title="A Materialized Layer with 3 Tasks.&#10;">
<polygon fill="none" stroke="black" points="2670.25,-121.25 2469,-121.25 2469,-85.25 2670.25,-85.25 2670.25,-121.25"/>
<text text-anchor="middle" x="2569.62" y="-92.25" font-family="Helvetica,sans-Serif" font-size="25.00">(&#39;pow&#45;mul&#45;#6&#39;, 9)</text>
</a>
</g>
</g>
<!-- &#45;8014072433928442524&#45;&gt;&#45;6443395662130582306 -->
<g id="edge46" class="edge">
<title>&#45;8014072433928442524&#45;&gt;&#45;6443395662130582306</title>
<path fill="none" stroke="black" d="M2477.66,-49.66C2494.18,-59.11 2513.07,-69.91 2529.42,-79.26"/>
<polygon fill="black" stroke="black" points="2527.49,-82.19 2537.91,-84.11 2530.96,-76.11 2527.49,-82.19"/>
</g>
<!-- &#45;5992219527240249053 -->
<g id="node24" class="node">
<title>&#45;5992219527240249053</title>
<g id="a_node24"><a xlink:title="A Materialized Layer with 2 Tasks.&#10;">
<polygon fill="none" stroke="black" points="1784.38,-193.25 1676.88,-193.25 1676.88,-157.25 1784.38,-157.25 1784.38,-193.25"/>
<text text-anchor="middle" x="1730.62" y="-166.75" font-family="Helvetica,sans-Serif" font-size="20.00">finalize&#45;#5</text>
</a>
</g>
</g>
<!-- 6578685679436907671&#45;&gt;&#45;5992219527240249053 -->
<g id="edge22" class="edge">
<title>6578685679436907671&#45;&gt;&#45;5992219527240249053</title>
<path fill="none" stroke="black" d="M1353.33,-119.85C1356.12,-120.34 1358.9,-120.81 1361.62,-121.25 1493.23,-142.59 1531.17,-131.94 1665.33,-156.98"/>
<polygon fill="black" stroke="black" points="1664.48,-160.38 1674.96,-158.81 1665.79,-153.5 1664.48,-160.38"/>
</g>
<!-- &#45;5360417638170645520&#45;&gt;&#45;5992219527240249053 -->
<g id="edge19" class="edge">
<title>&#45;5360417638170645520&#45;&gt;&#45;5992219527240249053</title>
<path fill="none" stroke="black" d="M969.74,-120.14C972.39,-120.54 975.03,-120.92 977.62,-121.25 1278.47,-160.05 1362.32,-110.22 1665.16,-157.08"/>
<polygon fill="black" stroke="black" points="1664.57,-160.53 1674.99,-158.63 1665.66,-153.62 1664.57,-160.53"/>
</g>
<!-- &#45;3251134265053015223&#45;&gt;&#45;5992219527240249053 -->
<g id="edge17" class="edge">
<title>&#45;3251134265053015223&#45;&gt;&#45;5992219527240249053</title>
<path fill="none" stroke="black" d="M3455.53,-120.24C3452.87,-120.62 3450.23,-120.95 3447.62,-121.25 3085.99,-162.32 2175.99,-106.13 1796.11,-157.17"/>
<polygon fill="black" stroke="black" points="1795.67,-153.7 1786.25,-158.55 1796.63,-160.63 1795.67,-153.7"/>
</g>
<!-- &#45;8144208294025711589&#45;&gt;&#45;5992219527240249053 -->
<g id="edge23" class="edge">
<title>&#45;8144208294025711589&#45;&gt;&#45;5992219527240249053</title>
<path fill="none" stroke="black" d="M1518.59,-121.24C1559.35,-130.74 1611.11,-143.03 1665.74,-156.81"/>
<polygon fill="black" stroke="black" points="1664.68,-160.15 1675.23,-159.21 1666.39,-153.36 1664.68,-160.15"/>
</g>
<!-- &#45;1636567537923713164&#45;&gt;&#45;5992219527240249053 -->
<g id="edge21" class="edge">
<title>&#45;1636567537923713164&#45;&gt;&#45;5992219527240249053</title>
<path fill="none" stroke="black" d="M2687.52,-120.18C2684.86,-120.57 2682.22,-120.93 2679.62,-121.25 2292.2,-168.95 2185.21,-98.9 1796.06,-157.11"/>
<polygon fill="black" stroke="black" points="1795.62,-153.63 1786.25,-158.59 1796.67,-160.55 1795.62,-153.63"/>
</g>
<!-- &#45;6529641566896409530&#45;&gt;&#45;5992219527240249053 -->
<g id="edge16" class="edge">
<title>&#45;6529641566896409530&#45;&gt;&#45;5992219527240249053</title>
<path fill="none" stroke="black" d="M1639.85,-121.73C1655.41,-130.74 1674.58,-141.83 1691.28,-151.49"/>
<polygon fill="black" stroke="black" points="1689.07,-154.25 1699.48,-156.23 1692.58,-148.19 1689.07,-154.25"/>
</g>
<!-- &#45;4420358193778779233&#45;&gt;&#45;5992219527240249053 -->
<g id="edge24" class="edge">
<title>&#45;4420358193778779233&#45;&gt;&#45;5992219527240249053</title>
<path fill="none" stroke="black" d="M3071.52,-120.22C3068.86,-120.6 3066.22,-120.95 3063.62,-121.25 2506.47,-186.39 2354.29,-76.59 1795.92,-157.15"/>
<polygon fill="black" stroke="black" points="1795.64,-153.65 1786.25,-158.56 1796.65,-160.58 1795.64,-153.65"/>
</g>
<!-- 9133311850958076017&#45;&gt;&#45;5992219527240249053 -->
<g id="edge20" class="edge">
<title>9133311850958076017&#45;&gt;&#45;5992219527240249053</title>
<path fill="none" stroke="black" d="M1927.39,-121.72C1891.1,-131.31 1845.03,-143.52 1795.53,-156.75"/>
<polygon fill="black" stroke="black" points="1794.8,-153.32 1786.04,-159.28 1796.6,-160.08 1794.8,-153.32"/>
</g>
<!-- &#45;2805791466649477174&#45;&gt;&#45;5992219527240249053 -->
<g id="edge18" class="edge">
<title>&#45;2805791466649477174&#45;&gt;&#45;5992219527240249053</title>
<path fill="none" stroke="black" d="M585.73,-120.2C588.39,-120.59 591.03,-120.94 593.62,-121.25 1064.15,-177.49 1193.27,-87.99 1665.28,-157.13"/>
<polygon fill="black" stroke="black" points="1664.59,-160.57 1675,-158.57 1665.62,-153.64 1664.59,-160.57"/>
</g>
<!-- 3701849289452521251&#45;&gt;&#45;5992219527240249053 -->
<g id="edge15" class="edge">
<title>3701849289452521251&#45;&gt;&#45;5992219527240249053</title>
<path fill="none" stroke="black" d="M2303.51,-120.08C2300.85,-120.5 2298.22,-120.89 2295.62,-121.25 2077.75,-151.51 2016.21,-120.99 1796.06,-157.05"/>
<polygon fill="black" stroke="black" points="1795.56,-153.58 1786.27,-158.68 1796.71,-160.49 1795.56,-153.58"/>
</g>
<!-- &#45;5992219527240249053&#45;&gt;1999298058508588639 -->
<g id="edge3" class="edge">
<title>&#45;5992219527240249053&#45;&gt;1999298058508588639</title>
<path fill="none" stroke="black" d="M1730.62,-193.55C1730.62,-200.84 1730.62,-209.52 1730.62,-217.71"/>
<polygon fill="black" stroke="black" points="1727.13,-217.63 1730.63,-227.63 1734.13,-217.63 1727.13,-217.63"/>
</g>
<!-- 5631093281867502004 -->
<g id="node25" class="node">
<title>5631093281867502004</title>
<g id="a_node25"><a xlink:title="A Materialized Layer with 2 Tasks.&#10;">
<polygon fill="none" stroke="black" points="1520.75,-193.25 1400.5,-193.25 1400.5,-157.25 1520.75,-157.25 1520.75,-193.25"/>
<text text-anchor="middle" x="1460.62" y="-166.75" font-family="Helvetica,sans-Serif" font-size="20.00">(&#39;mul&#45;#6&#39;, 0)</text>
</a>
</g>
</g>
<!-- &#45;6419179714170818426 -->
<g id="node35" class="node">
<title>&#45;6419179714170818426</title>
<g id="a_node35"><a xlink:title="A Materialized Layer with 2 Tasks.&#10;">
<polygon fill="none" stroke="black" points="1916.38,-265.25 1808.88,-265.25 1808.88,-229.25 1916.38,-229.25 1916.38,-265.25"/>
<text text-anchor="middle" x="1862.62" y="-238.75" font-family="Helvetica,sans-Serif" font-size="20.00">finalize&#45;#7</text>
</a>
</g>
</g>
<!-- 5631093281867502004&#45;&gt;&#45;6419179714170818426 -->
<g id="edge40" class="edge">
<title>5631093281867502004&#45;&gt;&#45;6419179714170818426</title>
<path fill="none" stroke="black" d="M1521.13,-191.53C1524,-192.14 1526.84,-192.71 1529.62,-193.25 1643.32,-215.13 1673.73,-208.43 1787.62,-229.25 1790.83,-229.84 1794.1,-230.46 1797.4,-231.12"/>
<polygon fill="black" stroke="black" points="1796.68,-234.55 1807.18,-233.14 1798.09,-227.69 1796.68,-234.55"/>
</g>
<!-- 738019252894805638 -->
<g id="node26" class="node">
<title>738019252894805638</title>
<g id="a_node26"><a xlink:title="A Materialized Layer with 2 Tasks.&#10;">
<polygon fill="none" stroke="black" points="1382.75,-193.25 1262.5,-193.25 1262.5,-157.25 1382.75,-157.25 1382.75,-193.25"/>
<text text-anchor="middle" x="1322.62" y="-166.75" font-family="Helvetica,sans-Serif" font-size="20.00">(&#39;mul&#45;#6&#39;, 1)</text>
</a>
</g>
</g>
<!-- 738019252894805638&#45;&gt;&#45;6419179714170818426 -->
<g id="edge37" class="edge">
<title>738019252894805638&#45;&gt;&#45;6419179714170818426</title>
<path fill="none" stroke="black" d="M1383.1,-191.7C1385.97,-192.26 1388.83,-192.78 1391.62,-193.25 1565.92,-222.47 1613.07,-201.66 1787.62,-229.25 1790.84,-229.76 1794.12,-230.32 1797.43,-230.93"/>
<polygon fill="black" stroke="black" points="1796.74,-234.36 1807.23,-232.84 1798.09,-227.49 1796.74,-234.36"/>
</g>
<!-- 7245660008996804063 -->
<g id="node27" class="node">
<title>7245660008996804063</title>
<g id="a_node27"><a xlink:title="A Materialized Layer with 2 Tasks.&#10;">
<polygon fill="none" stroke="black" points="3603.75,-193.25 3483.5,-193.25 3483.5,-157.25 3603.75,-157.25 3603.75,-193.25"/>
<text text-anchor="middle" x="3543.62" y="-166.75" font-family="Helvetica,sans-Serif" font-size="20.00">(&#39;mul&#45;#6&#39;, 2)</text>
</a>
</g>
</g>
<!-- 7245660008996804063&#45;&gt;&#45;6419179714170818426 -->
<g id="edge44" class="edge">
<title>7245660008996804063&#45;&gt;&#45;6419179714170818426</title>
<path fill="none" stroke="black" d="M3483.06,-179.9C3421.15,-183.57 3322.21,-189.23 3236.62,-193.25 2733.08,-216.9 2125.36,-237.6 1927.95,-244.12"/>
<polygon fill="black" stroke="black" points="1928.04,-240.61 1918.16,-244.44 1928.27,-247.61 1928.04,-240.61"/>
</g>
<!-- &#45;4693443308610749128 -->
<g id="node28" class="node">
<title>&#45;4693443308610749128</title>
<g id="a_node28"><a xlink:title="A Materialized Layer with 2 Tasks.&#10;">
<polygon fill="none" stroke="black" points="1658.75,-193.25 1538.5,-193.25 1538.5,-157.25 1658.75,-157.25 1658.75,-193.25"/>
<text text-anchor="middle" x="1598.62" y="-166.75" font-family="Helvetica,sans-Serif" font-size="20.00">(&#39;mul&#45;#6&#39;, 3)</text>
</a>
</g>
</g>
<!-- &#45;4693443308610749128&#45;&gt;&#45;6419179714170818426 -->
<g id="edge42" class="edge">
<title>&#45;4693443308610749128&#45;&gt;&#45;6419179714170818426</title>
<path fill="none" stroke="black" d="M1659.19,-192.31C1700.56,-203.28 1755.31,-217.8 1797.6,-229.01"/>
<polygon fill="black" stroke="black" points="1796.59,-232.36 1807.15,-231.54 1798.38,-225.59 1796.59,-232.36"/>
</g>
<!-- 4461869353141737994 -->
<g id="node29" class="node">
<title>4461869353141737994</title>
<g id="a_node29"><a xlink:title="A Materialized Layer with 2 Tasks.&#10;">
<polygon fill="none" stroke="black" points="2858.75,-193.25 2738.5,-193.25 2738.5,-157.25 2858.75,-157.25 2858.75,-193.25"/>
<text text-anchor="middle" x="2798.62" y="-166.75" font-family="Helvetica,sans-Serif" font-size="20.00">(&#39;mul&#45;#6&#39;, 4)</text>
</a>
</g>
</g>
<!-- 4461869353141737994&#45;&gt;&#45;6419179714170818426 -->
<g id="edge38" class="edge">
<title>4461869353141737994&#45;&gt;&#45;6419179714170818426</title>
<path fill="none" stroke="black" d="M2738.29,-180.76C2570.83,-193.29 2101.24,-228.4 1927.95,-241.36"/>
<polygon fill="black" stroke="black" points="1927.94,-237.86 1918.23,-242.09 1928.46,-244.84 1927.94,-237.86"/>
</g>
<!-- &#45;7477233964465815197 -->
<g id="node30" class="node">
<title>&#45;7477233964465815197</title>
<g id="a_node30"><a xlink:title="A Materialized Layer with 2 Tasks.&#10;">
<polygon fill="none" stroke="black" points="1922.75,-193.25 1802.5,-193.25 1802.5,-157.25 1922.75,-157.25 1922.75,-193.25"/>
<text text-anchor="middle" x="1862.62" y="-166.75" font-family="Helvetica,sans-Serif" font-size="20.00">(&#39;mul&#45;#6&#39;, 5)</text>
</a>
</g>
</g>
<!-- &#45;7477233964465815197&#45;&gt;&#45;6419179714170818426 -->
<g id="edge36" class="edge">
<title>&#45;7477233964465815197&#45;&gt;&#45;6419179714170818426</title>
<path fill="none" stroke="black" d="M1862.62,-193.55C1862.62,-200.84 1862.62,-209.52 1862.62,-217.71"/>
<polygon fill="black" stroke="black" points="1859.13,-217.63 1862.63,-227.63 1866.13,-217.63 1859.13,-217.63"/>
</g>
<!-- 6076436080271040053 -->
<g id="node31" class="node">
<title>6076436080271040053</title>
<g id="a_node31"><a xlink:title="A Materialized Layer with 2 Tasks.&#10;">
<polygon fill="none" stroke="black" points="3227.75,-193.25 3107.5,-193.25 3107.5,-157.25 3227.75,-157.25 3227.75,-193.25"/>
<text text-anchor="middle" x="3167.62" y="-166.75" font-family="Helvetica,sans-Serif" font-size="20.00">(&#39;mul&#45;#6&#39;, 6)</text>
</a>
</g>
</g>
<!-- 6076436080271040053&#45;&gt;&#45;6419179714170818426 -->
<g id="edge41" class="edge">
<title>6076436080271040053&#45;&gt;&#45;6419179714170818426</title>
<path fill="none" stroke="black" d="M3107.01,-179.75C3046.42,-183.24 2950.58,-188.71 2867.62,-193.25 2513.04,-212.65 2088.01,-234.65 1927.89,-242.9"/>
<polygon fill="black" stroke="black" points="1928.15,-239.38 1918.34,-243.39 1928.51,-246.37 1928.15,-239.38"/>
</g>
<!-- &#45;5862667237336513138 -->
<g id="node32" class="node">
<title>&#45;5862667237336513138</title>
<g id="a_node32"><a xlink:title="A Materialized Layer with 2 Tasks.&#10;">
<polygon fill="none" stroke="black" points="2183.75,-193.25 2063.5,-193.25 2063.5,-157.25 2183.75,-157.25 2183.75,-193.25"/>
<text text-anchor="middle" x="2123.62" y="-166.75" font-family="Helvetica,sans-Serif" font-size="20.00">(&#39;mul&#45;#6&#39;, 7)</text>
</a>
</g>
</g>
<!-- &#45;5862667237336513138&#45;&gt;&#45;6419179714170818426 -->
<g id="edge39" class="edge">
<title>&#45;5862667237336513138&#45;&gt;&#45;6419179714170818426</title>
<path fill="none" stroke="black" d="M2063.09,-192.49C2022.54,-203.36 1969.18,-217.67 1927.71,-228.79"/>
<polygon fill="black" stroke="black" points="1926.84,-225.4 1918.09,-231.38 1928.65,-232.17 1926.84,-225.4"/>
</g>
<!-- 7691002807400342112 -->
<g id="node33" class="node">
<title>7691002807400342112</title>
<g id="a_node33"><a xlink:title="A Materialized Layer with 2 Tasks.&#10;">
<polygon fill="none" stroke="black" points="1244.75,-193.25 1124.5,-193.25 1124.5,-157.25 1244.75,-157.25 1244.75,-193.25"/>
<text text-anchor="middle" x="1184.62" y="-166.75" font-family="Helvetica,sans-Serif" font-size="20.00">(&#39;mul&#45;#6&#39;, 8)</text>
</a>
</g>
</g>
<!-- 7691002807400342112&#45;&gt;&#45;6419179714170818426 -->
<g id="edge35" class="edge">
<title>7691002807400342112&#45;&gt;&#45;6419179714170818426</title>
<path fill="none" stroke="black" d="M1245.09,-191.78C1247.96,-192.32 1250.82,-192.81 1253.62,-193.25 1488.67,-229.84 1552.25,-194.85 1787.62,-229.25 1790.85,-229.72 1794.13,-230.26 1797.44,-230.84"/>
<polygon fill="black" stroke="black" points="1796.77,-234.27 1807.25,-232.7 1798.08,-227.4 1796.77,-234.27"/>
</g>
<!-- &#45;8646457893191579207 -->
<g id="node34" class="node">
<title>&#45;8646457893191579207</title>
<g id="a_node34"><a xlink:title="A Materialized Layer with 2 Tasks.&#10;">
<polygon fill="none" stroke="black" points="2505.75,-193.25 2385.5,-193.25 2385.5,-157.25 2505.75,-157.25 2505.75,-193.25"/>
<text text-anchor="middle" x="2445.62" y="-166.75" font-family="Helvetica,sans-Serif" font-size="20.00">(&#39;mul&#45;#6&#39;, 9)</text>
</a>
</g>
</g>
<!-- &#45;8646457893191579207&#45;&gt;&#45;6419179714170818426 -->
<g id="edge43" class="edge">
<title>&#45;8646457893191579207&#45;&gt;&#45;6419179714170818426</title>
<path fill="none" stroke="black" d="M2385.16,-183.51C2274.76,-196.77 2041.5,-224.77 1927.75,-238.43"/>
<polygon fill="black" stroke="black" points="1927.48,-234.94 1917.97,-239.61 1928.31,-241.89 1927.48,-234.94"/>
</g>
<!-- &#45;6419179714170818426&#45;&gt;4730205943912289865 -->
<g id="edge1" class="edge">
<title>&#45;6419179714170818426&#45;&gt;4730205943912289865</title>
<path fill="none" stroke="black" d="M1846.31,-265.55C1838.56,-273.78 1829.14,-283.77 1820.59,-292.83"/>
<polygon fill="black" stroke="black" points="1818.1,-290.37 1813.79,-300.04 1823.2,-295.17 1818.1,-290.37"/>
</g>
<!-- &#45;8998021833651750652&#45;&gt;7245660008996804063 -->
<g id="edge27" class="edge">
<title>&#45;8998021833651750652&#45;&gt;7245660008996804063</title>
<path fill="none" stroke="black" d="M3677.17,-121.73C3653.29,-131.12 3623.65,-142.78 3598.36,-152.72"/>
<polygon fill="black" stroke="black" points="3597.26,-149.4 3589.23,-156.31 3599.82,-155.91 3597.26,-149.4"/>
</g>
<!-- &#45;6443395662130582306&#45;&gt;&#45;8646457893191579207 -->
<g id="edge34" class="edge">
<title>&#45;6443395662130582306&#45;&gt;&#45;8646457893191579207</title>
<path fill="none" stroke="black" d="M2538.65,-121.73C2522.7,-130.74 2503.06,-141.83 2485.94,-151.49"/>
<polygon fill="black" stroke="black" points="2484.51,-148.28 2477.52,-156.25 2487.95,-154.38 2484.51,-148.28"/>
</g>
<!-- &#45;2490381077549752227&#45;&gt;&#45;4693443308610749128 -->
<g id="edge28" class="edge">
<title>&#45;2490381077549752227&#45;&gt;&#45;4693443308610749128</title>
<path fill="none" stroke="black" d="M1188.56,-120.16C1191.27,-120.54 1193.97,-120.9 1196.62,-121.25 1340.6,-140.25 1381.07,-131.83 1526.98,-156.91"/>
<polygon fill="black" stroke="black" points="1526.2,-160.33 1536.65,-158.6 1527.4,-153.43 1526.2,-160.33"/>
</g>
<!-- 1233469022697180129&#45;&gt;6076436080271040053 -->
<g id="edge31" class="edge">
<title>1233469022697180129&#45;&gt;6076436080271040053</title>
<path fill="none" stroke="black" d="M3295.17,-121.73C3272.46,-131.08 3244.31,-142.68 3220.23,-152.59"/>
<polygon fill="black" stroke="black" points="3219.15,-149.25 3211.24,-156.29 3221.82,-155.72 3219.15,-149.25"/>
</g>
<!-- 7834155512928498905&#45;&gt;5631093281867502004 -->
<g id="edge25" class="edge">
<title>7834155512928498905&#45;&gt;5631093281867502004</title>
<path fill="none" stroke="black" d="M804.54,-120.33C807.26,-120.65 809.96,-120.96 812.62,-121.25 1065.31,-148.75 1134.8,-119.12 1389.09,-157.03"/>
<polygon fill="black" stroke="black" points="1388.26,-160.44 1398.67,-158.48 1389.31,-153.52 1388.26,-160.44"/>
</g>
<!-- &#45;3659605006275516237&#45;&gt;&#45;5862667237336513138 -->
<g id="edge32" class="edge">
<title>&#45;3659605006275516237&#45;&gt;&#45;5862667237336513138</title>
<path fill="none" stroke="black" d="M2170.3,-121.55C2163.09,-129.69 2154.35,-139.56 2146.39,-148.55"/>
<polygon fill="black" stroke="black" points="2143.79,-146.21 2139.78,-156.01 2149.03,-150.85 2143.79,-146.21"/>
</g>
<!-- 6664931584202734895&#45;&gt;4461869353141737994 -->
<g id="edge29" class="edge">
<title>6664931584202734895&#45;&gt;4461869353141737994</title>
<path fill="none" stroke="black" d="M2914.91,-121.73C2894.49,-130.96 2869.23,-142.36 2847.47,-152.19"/>
<polygon fill="black" stroke="black" points="2846.17,-148.94 2838.49,-156.25 2849.05,-155.32 2846.17,-148.94"/>
</g>
<!-- &#45;4104947804679054286&#45;&gt;738019252894805638 -->
<g id="edge26" class="edge">
<title>&#45;4104947804679054286&#45;&gt;738019252894805638</title>
<path fill="none" stroke="black" d="M420.53,-120.39C423.25,-120.7 425.96,-120.98 428.62,-121.25 790.09,-157.21 888.33,-106.16 1250.82,-157.03"/>
<polygon fill="black" stroke="black" points="1250.28,-160.48 1260.68,-158.43 1251.27,-153.55 1250.28,-160.48"/>
</g>
<!-- &#45;5274171733404818296&#45;&gt;&#45;7477233964465815197 -->
<g id="edge30" class="edge">
<title>&#45;5274171733404818296&#45;&gt;&#45;7477233964465815197</title>
<path fill="none" stroke="black" d="M1816.7,-121.55C1823.8,-129.69 1832.4,-139.56 1840.23,-148.55"/>
<polygon fill="black" stroke="black" points="1837.52,-150.76 1846.73,-156 1842.79,-146.17 1837.52,-150.76"/>
</g>
<!-- &#45;1550321633157885940&#45;&gt;7691002807400342112 -->
<g id="edge33" class="edge">
<title>&#45;1550321633157885940&#45;&gt;7691002807400342112</title>
<path fill="none" stroke="black" d="M201.53,-120.41C204.25,-120.71 206.96,-120.99 209.62,-121.25 606.99,-160 714.63,-101.86 1112.91,-157.05"/>
<polygon fill="black" stroke="black" points="1112.29,-160.49 1122.68,-158.42 1113.26,-153.56 1112.29,-160.49"/>
</g>
</g>
</svg>
