<?xml version="1.0" encoding="UTF-8" standalone="no"?>
<!DOCTYPE svg PUBLIC "-//W3C//DTD SVG 1.1//EN"
 "http://www.w3.org/Graphics/SVG/1.1/DTD/svg11.dtd">
<!-- Generated by graphviz version 12.1.2 (20240928.0832)
 -->
<!-- Pages: 1 -->
<svg width="254pt" height="287pt"
 viewBox="0.00 0.00 253.50 286.50" xmlns="http://www.w3.org/2000/svg" xmlns:xlink="http://www.w3.org/1999/xlink">
<g id="graph0" class="graph" transform="scale(1 1) rotate(0) translate(4 282.5)">
<polygon fill="white" stroke="none" points="-4,4 -4,-282.5 249.5,-282.5 249.5,4 -4,4"/>
<!-- &#45;4400612222122483741 -->
<g id="node1" class="node">
<title>&#45;4400612222122483741</title>
<g id="a_node1"><a xlink:title="A Blockwise Layer with 9 Tasks.&#10;Array Shape: (15, 15)&#10;Data Type: float64&#10;Chunk Size: (5, 5)&#10;Chunk Type: numpy.ndarray&#10;">
<polygon fill="none" stroke="black" points="245.5,-49.25 0,-49.25 0,0 245.5,0 245.5,-49.25"/>
<text text-anchor="middle" x="122.75" y="-7.25" font-family="Helvetica,sans-Serif" font-size="40.00">ones_like&#45;#0</text>
</a>
</g>
</g>
<!-- 17170954278256781 -->
<g id="node2" class="node">
<title>17170954278256781</title>
<g id="a_node2"><a xlink:title="A Blockwise Layer with 9 Tasks.&#10;Array Shape: (15, 15)&#10;Data Type: float64&#10;Chunk Size: (5, 5)&#10;Chunk Type: numpy.ndarray&#10;">
<polygon fill="none" stroke="black" points="197.88,-134.5 47.62,-134.5 47.62,-85.25 197.88,-85.25 197.88,-134.5"/>
<text text-anchor="middle" x="122.75" y="-92.5" font-family="Helvetica,sans-Serif" font-size="40.00">sum&#45;#1</text>
</a>
</g>
</g>
<!-- &#45;4400612222122483741&#45;&gt;17170954278256781 -->
<g id="edge1" class="edge">
<title>&#45;4400612222122483741&#45;&gt;17170954278256781</title>
<path fill="none" stroke="black" d="M122.75,-49.7C122.75,-57.13 122.75,-65.46 122.75,-73.47"/>
<polygon fill="black" stroke="black" points="119.25,-73.34 122.75,-83.34 126.25,-73.34 119.25,-73.34"/>
</g>
<!-- &#45;2709091733087503322 -->
<g id="node3" class="node">
<title>&#45;2709091733087503322</title>
<g id="a_node3"><a xlink:title="A Materialized Layer with 4 Tasks.&#10;Array Shape: (2, 2)&#10;Data Type: float64&#10;Chunk Size: (1, 1)&#10;Chunk Type: numpy.ndarray&#10;">
<polygon fill="none" stroke="black" points="217,-206.5 28.5,-206.5 28.5,-170.5 217,-170.5 217,-206.5"/>
<text text-anchor="middle" x="122.75" y="-176.72" font-family="Helvetica,sans-Serif" font-size="27.00">sum&#45;partial&#45;#2</text>
</a>
</g>
</g>
<!-- 17170954278256781&#45;&gt;&#45;2709091733087503322 -->
<g id="edge2" class="edge">
<title>17170954278256781&#45;&gt;&#45;2709091733087503322</title>
<path fill="none" stroke="black" d="M122.75,-134.7C122.75,-142.28 122.75,-150.76 122.75,-158.66"/>
<polygon fill="black" stroke="black" points="119.25,-158.51 122.75,-168.51 126.25,-158.51 119.25,-158.51"/>
</g>
<!-- 4081098729107011900 -->
<g id="node4" class="node">
<title>4081098729107011900</title>
<g id="a_node4"><a xlink:title="A Materialized Layer with 1 Tasks.&#10;Array Shape: ()&#10;Data Type: float64&#10;Chunk Size: ()&#10;Chunk Type: numpy.ndarray&#10;">
<polygon fill="none" stroke="black" points="212.88,-278.5 32.62,-278.5 32.62,-242.5 212.88,-242.5 212.88,-278.5"/>
<text text-anchor="middle" x="122.75" y="-252" font-family="Helvetica,sans-Serif" font-size="20.00">sum&#45;aggregate&#45;#3</text>
</a>
</g>
</g>
<!-- &#45;2709091733087503322&#45;&gt;4081098729107011900 -->
<g id="edge3" class="edge">
<title>&#45;2709091733087503322&#45;&gt;4081098729107011900</title>
<path fill="none" stroke="black" d="M122.75,-206.8C122.75,-214.09 122.75,-222.77 122.75,-230.96"/>
<polygon fill="black" stroke="black" points="119.25,-230.88 122.75,-240.88 126.25,-230.88 119.25,-230.88"/>
</g>
</g>
</svg>
